<mxfile host="app.diagrams.net" modified="2024-02-10T16:39:00.146Z" agent="Mozilla/5.0 (Windows NT 10.0; Win64; x64) AppleWebKit/537.36 (KHTML, like Gecko) Chrome/121.0.0.0 Safari/537.36" etag="yVZ9G4g_L7YgOuvIC0jE" version="23.1.2" type="device">
  <diagram name="Page-1" id="9yBLNLPJl3ILlzbAzQ67">
    <mxGraphModel dx="1900" dy="603" grid="1" gridSize="10" guides="1" tooltips="1" connect="1" arrows="1" fold="1" page="1" pageScale="1" pageWidth="850" pageHeight="1100" math="0" shadow="0">
      <root>
        <mxCell id="0" />
        <mxCell id="1" parent="0" />
        <UserObject label="" plantUmlData="{&#xa;  &quot;data&quot;: &quot;@startuml\n\nentity ReactRise {\n    * appId: string\n}\n\nentity User {\n    * userId: string\n    --\n    name: string\n    email: string\n    password: string\n}\n\nentity Room {\n    * roomId: string\n    --\n    name: string\n    createdTime: Date\n    expiredTime: Date\n}\n\nentity Comment {\n    * commentId: string\n    --\n    userId: string\n    username: string\n    content: string\n}\n\nentity UserManagement {\n    * userManagementId: string\n}\n\nentity RoomManagement {\n    * roomManagementId: string\n}\n\nentity CommentManagement {\n    * commentManagementId: string\n}\n\nReactRise ||--o{ UserManagement\nReactRise ||--o{ RoomManagement\nReactRise ||--o{ CommentManagement\n\nUserManagement ||--o{ User\nRoomManagement ||--o{ Room\nCommentManagement ||--o{ Comment\n\n@enduml\n&quot;,&#xa;  &quot;format&quot;: &quot;svg&quot;&#xa;}" id="Xp2U1Py2a4tQiPsUo6Td-1">
          <mxCell style="shape=image;noLabel=1;verticalAlign=top;aspect=fixed;imageAspect=0;image=data:image/svg+xml,PD94bWwgdmVyc2lvbj0iMS4wIiBlbmNvZGluZz0idXMtYXNjaWkiIHN0YW5kYWxvbmU9Im5vIj8+PHN2ZyB4bWxucz0iaHR0cDovL3d3dy53My5vcmcvMjAwMC9zdmciIHhtbG5zOnhsaW5rPSJodHRwOi8vd3d3LnczLm9yZy8xOTk5L3hsaW5rIiBjb250ZW50U3R5bGVUeXBlPSJ0ZXh0L2NzcyIgaGVpZ2h0PSIzNjdweCIgcHJlc2VydmVBc3BlY3RSYXRpbz0ibm9uZSIgc3R5bGU9IndpZHRoOjY5M3B4O2hlaWdodDozNjdweDtiYWNrZ3JvdW5kOiNGRkZGRkY7IiB2ZXJzaW9uPSIxLjEiIHZpZXdCb3g9IjAgMCA2OTMgMzY3IiB3aWR0aD0iNjkzcHgiIHpvb21BbmRQYW49Im1hZ25pZnkiPjxkZWZzLz48Zz48IS0tY2xhc3MgUmVhY3RSaXNlLS0+PGcgaWQ9ImVsZW1fUmVhY3RSaXNlIj48cmVjdCBjb2RlTGluZT0iMSIgZmlsbD0iI0YxRjFGMSIgaGVpZ2h0PSI2Mi45ODQ0IiBpZD0iUmVhY3RSaXNlIiByeD0iMi41IiByeT0iMi41IiBzdHlsZT0ic3Ryb2tlOiMxODE4MTg7c3Ryb2tlLXdpZHRoOjAuNTsiIHdpZHRoPSIxMTciIHg9IjI3NyIgeT0iNyIvPjxlbGxpcHNlIGN4PSIzMDEuOSIgY3k9IjIzIiBmaWxsPSIjQUREMUIyIiByeD0iMTEiIHJ5PSIxMSIgc3R5bGU9InN0cm9rZTojMTgxODE4O3N0cm9rZS13aWR0aDoxLjA7Ii8+PHBhdGggZD0iTTMwNS41MjUsMjkgTDMwNS41MjUsMjcuMjUgTDMwMC4yMTI1LDI3LjI1IFEzMDAuMjEyNSwyNy4yNSAzMDAuMjEyNSwyMy42ODc1IEwzMDQuNDYyNSwyMy42ODc1IEwzMDQuNDYyNSwyMS45Mzc1IEwzMDAuMjEyNSwyMS45Mzc1IEwzMDAuMjEyNSwxOS40Mzc1IEwzMDUuNTI1LDE5LjQzNzUgTDMwNS41MjUsMTcuNjg3NSBMMjk4LjQ2MjUsMTcuNjg3NSBRMjk4LjQ2MjUsMTcuNjg3NSAyOTguNDYyNSwyOSBMMzA1LjUyNSwyOSBaICIgZmlsbD0iIzAwMDAwMCIvPjx0ZXh0IGZpbGw9IiMwMDAwMDAiIGZvbnQtZmFtaWx5PSJzYW5zLXNlcmlmIiBmb250LXNpemU9IjE0IiBsZW5ndGhBZGp1c3Q9InNwYWNpbmciIHRleHRMZW5ndGg9IjYzIiB4PSIzMTguMSIgeT0iMjguNzQyMiI+UmVhY3RSaXNlPC90ZXh0PjxsaW5lIHN0eWxlPSJzdHJva2U6IzE4MTgxODtzdHJva2Utd2lkdGg6MC41OyIgeDE9IjI3OCIgeDI9IjM5MyIgeTE9IjM5IiB5Mj0iMzkiLz48ZWxsaXBzZSBjeD0iMjg4IiBjeT0iNTEuOTkyMiIgZmlsbD0iIzAwMDAwMCIgcng9IjMiIHJ5PSIzIiBzdHlsZT0ic3Ryb2tlOiMwMDAwMDA7c3Ryb2tlLXdpZHRoOjEuMDsiLz48dGV4dCBmaWxsPSIjMDAwMDAwIiBmb250LWZhbWlseT0ic2Fucy1zZXJpZiIgZm9udC1zaXplPSIxNCIgbGVuZ3RoQWRqdXN0PSJzcGFjaW5nIiB0ZXh0TGVuZ3RoPSI5MSIgeD0iMjk3IiB5PSI1Ni4yMzQ0Ij5hcHBJZDogc3RyaW5nPC90ZXh0PjxsaW5lIHN0eWxlPSJzdHJva2U6IzE4MTgxODtzdHJva2Utd2lkdGg6MC41OyIgeDE9IjI3OCIgeDI9IjM5MyIgeTE9IjYxLjk4NDQiIHkyPSI2MS45ODQ0Ii8+PC9nPjwhLS1jbGFzcyBVc2VyLS0+PGcgaWQ9ImVsZW1fVXNlciI+PHJlY3QgY29kZUxpbmU9IjUiIGZpbGw9IiNGMUYxRjEiIGhlaWdodD0iMTA3LjkzNzUiIGlkPSJVc2VyIiByeD0iMi41IiByeT0iMi41IiBzdHlsZT0ic3Ryb2tlOiMxODE4MTg7c3Ryb2tlLXdpZHRoOjAuNTsiIHdpZHRoPSIxMjUiIHg9IjQyIiB5PSIyNTMiLz48ZWxsaXBzZSBjeD0iODYuMjUiIGN5PSIyNjkiIGZpbGw9IiNBREQxQjIiIHJ4PSIxMSIgcnk9IjExIiBzdHlsZT0ic3Ryb2tlOiMxODE4MTg7c3Ryb2tlLXdpZHRoOjEuMDsiLz48cGF0aCBkPSJNODkuODc1LDI3NSBMODkuODc1LDI3My4yNSBMODQuNTYyNSwyNzMuMjUgUTg0LjU2MjUsMjczLjI1IDg0LjU2MjUsMjY5LjY4NzUgTDg4LjgxMjUsMjY5LjY4NzUgTDg4LjgxMjUsMjY3LjkzNzUgTDg0LjU2MjUsMjY3LjkzNzUgTDg0LjU2MjUsMjY1LjQzNzUgTDg5Ljg3NSwyNjUuNDM3NSBMODkuODc1LDI2My42ODc1IEw4Mi44MTI1LDI2My42ODc1IFE4Mi44MTI1LDI2My42ODc1IDgyLjgxMjUsMjc1IEw4OS44NzUsMjc1IFogIiBmaWxsPSIjMDAwMDAwIi8+PHRleHQgZmlsbD0iIzAwMDAwMCIgZm9udC1mYW1pbHk9InNhbnMtc2VyaWYiIGZvbnQtc2l6ZT0iMTQiIGxlbmd0aEFkanVzdD0ic3BhY2luZyIgdGV4dExlbmd0aD0iMjgiIHg9IjEwNi43NSIgeT0iMjc0Ljc0MjIiPlVzZXI8L3RleHQ+PGxpbmUgc3R5bGU9InN0cm9rZTojMTgxODE4O3N0cm9rZS13aWR0aDowLjU7IiB4MT0iNDMiIHgyPSIxNjYiIHkxPSIyODUiIHkyPSIyODUiLz48ZWxsaXBzZSBjeD0iNTMiIGN5PSIyOTcuOTkyMiIgZmlsbD0iIzAwMDAwMCIgcng9IjMiIHJ5PSIzIiBzdHlsZT0ic3Ryb2tlOiMwMDAwMDA7c3Ryb2tlLXdpZHRoOjEuMDsiLz48dGV4dCBmaWxsPSIjMDAwMDAwIiBmb250LWZhbWlseT0ic2Fucy1zZXJpZiIgZm9udC1zaXplPSIxNCIgbGVuZ3RoQWRqdXN0PSJzcGFjaW5nIiB0ZXh0TGVuZ3RoPSI5OCIgeD0iNjIiIHk9IjMwMi4yMzQ0Ij51c2VySWQ6IHN0cmluZzwvdGV4dD48bGluZSBzdHlsZT0ic3Ryb2tlOiMxODE4MTg7c3Ryb2tlLXdpZHRoOjEuMDsiIHgxPSI0MyIgeDI9IjE2NiIgeTE9IjMwNy45ODQ0IiB5Mj0iMzA3Ljk4NDQiLz48dGV4dCBmaWxsPSIjMDAwMDAwIiBmb250LWZhbWlseT0ic2Fucy1zZXJpZiIgZm9udC1zaXplPSIxNCIgbGVuZ3RoQWRqdXN0PSJzcGFjaW5nIiB0ZXh0TGVuZ3RoPSI4NSIgeD0iNDgiIHk9IjMyNS4yMTg4Ij5uYW1lOiBzdHJpbmc8L3RleHQ+PHRleHQgZmlsbD0iIzAwMDAwMCIgZm9udC1mYW1pbHk9InNhbnMtc2VyaWYiIGZvbnQtc2l6ZT0iMTQiIGxlbmd0aEFkanVzdD0ic3BhY2luZyIgdGV4dExlbmd0aD0iOTIiIHg9IjQ4IiB5PSIzNDAuMjAzMSI+ZW1haWw6IHN0cmluZzwvdGV4dD48dGV4dCBmaWxsPSIjMDAwMDAwIiBmb250LWZhbWlseT0ic2Fucy1zZXJpZiIgZm9udC1zaXplPSIxNCIgbGVuZ3RoQWRqdXN0PSJzcGFjaW5nIiB0ZXh0TGVuZ3RoPSIxMTMiIHg9IjQ4IiB5PSIzNTUuMTg3NSI+cGFzc3dvcmQ6IHN0cmluZzwvdGV4dD48L2c+PCEtLWNsYXNzIFJvb20tLT48ZyBpZD0iZWxlbV9Sb29tIj48cmVjdCBjb2RlTGluZT0iMTMiIGZpbGw9IiNGMUYxRjEiIGhlaWdodD0iMTA3LjkzNzUiIGlkPSJSb29tIiByeD0iMi41IiByeT0iMi41IiBzdHlsZT0ic3Ryb2tlOiMxODE4MTg7c3Ryb2tlLXdpZHRoOjAuNTsiIHdpZHRoPSIxMzIiIHg9IjI2OS41IiB5PSIyNTMiLz48ZWxsaXBzZSBjeD0iMzE2Ljc1IiBjeT0iMjY5IiBmaWxsPSIjQUREMUIyIiByeD0iMTEiIHJ5PSIxMSIgc3R5bGU9InN0cm9rZTojMTgxODE4O3N0cm9rZS13aWR0aDoxLjA7Ii8+PHBhdGggZD0iTTMyMC4zNzUsMjc1IEwzMjAuMzc1LDI3My4yNSBMMzE1LjA2MjUsMjczLjI1IFEzMTUuMDYyNSwyNzMuMjUgMzE1LjA2MjUsMjY5LjY4NzUgTDMxOS4zMTI1LDI2OS42ODc1IEwzMTkuMzEyNSwyNjcuOTM3NSBMMzE1LjA2MjUsMjY3LjkzNzUgTDMxNS4wNjI1LDI2NS40Mzc1IEwzMjAuMzc1LDI2NS40Mzc1IEwzMjAuMzc1LDI2My42ODc1IEwzMTMuMzEyNSwyNjMuNjg3NSBRMzEzLjMxMjUsMjYzLjY4NzUgMzEzLjMxMjUsMjc1IEwzMjAuMzc1LDI3NSBaICIgZmlsbD0iIzAwMDAwMCIvPjx0ZXh0IGZpbGw9IiMwMDAwMDAiIGZvbnQtZmFtaWx5PSJzYW5zLXNlcmlmIiBmb250LXNpemU9IjE0IiBsZW5ndGhBZGp1c3Q9InNwYWNpbmciIHRleHRMZW5ndGg9IjI5IiB4PSIzMzcuMjUiIHk9IjI3NC43NDIyIj5Sb29tPC90ZXh0PjxsaW5lIHN0eWxlPSJzdHJva2U6IzE4MTgxODtzdHJva2Utd2lkdGg6MC41OyIgeDE9IjI3MC41IiB4Mj0iNDAwLjUiIHkxPSIyODUiIHkyPSIyODUiLz48ZWxsaXBzZSBjeD0iMjgwLjUiIGN5PSIyOTcuOTkyMiIgZmlsbD0iIzAwMDAwMCIgcng9IjMiIHJ5PSIzIiBzdHlsZT0ic3Ryb2tlOiMwMDAwMDA7c3Ryb2tlLXdpZHRoOjEuMDsiLz48dGV4dCBmaWxsPSIjMDAwMDAwIiBmb250LWZhbWlseT0ic2Fucy1zZXJpZiIgZm9udC1zaXplPSIxNCIgbGVuZ3RoQWRqdXN0PSJzcGFjaW5nIiB0ZXh0TGVuZ3RoPSI5OSIgeD0iMjg5LjUiIHk9IjMwMi4yMzQ0Ij5yb29tSWQ6IHN0cmluZzwvdGV4dD48bGluZSBzdHlsZT0ic3Ryb2tlOiMxODE4MTg7c3Ryb2tlLXdpZHRoOjEuMDsiIHgxPSIyNzAuNSIgeDI9IjQwMC41IiB5MT0iMzA3Ljk4NDQiIHkyPSIzMDcuOTg0NCIvPjx0ZXh0IGZpbGw9IiMwMDAwMDAiIGZvbnQtZmFtaWx5PSJzYW5zLXNlcmlmIiBmb250LXNpemU9IjE0IiBsZW5ndGhBZGp1c3Q9InNwYWNpbmciIHRleHRMZW5ndGg9Ijg1IiB4PSIyNzUuNSIgeT0iMzI1LjIxODgiPm5hbWU6IHN0cmluZzwvdGV4dD48dGV4dCBmaWxsPSIjMDAwMDAwIiBmb250LWZhbWlseT0ic2Fucy1zZXJpZiIgZm9udC1zaXplPSIxNCIgbGVuZ3RoQWRqdXN0PSJzcGFjaW5nIiB0ZXh0TGVuZ3RoPSIxMjAiIHg9IjI3NS41IiB5PSIzNDAuMjAzMSI+Y3JlYXRlZFRpbWU6IERhdGU8L3RleHQ+PHRleHQgZmlsbD0iIzAwMDAwMCIgZm9udC1mYW1pbHk9InNhbnMtc2VyaWYiIGZvbnQtc2l6ZT0iMTQiIGxlbmd0aEFkanVzdD0ic3BhY2luZyIgdGV4dExlbmd0aD0iMTIwIiB4PSIyNzUuNSIgeT0iMzU1LjE4NzUiPmV4cGlyZWRUaW1lOiBEYXRlPC90ZXh0PjwvZz48IS0tY2xhc3MgQ29tbWVudC0tPjxnIGlkPSJlbGVtX0NvbW1lbnQiPjxyZWN0IGNvZGVMaW5lPSIyMSIgZmlsbD0iI0YxRjFGMSIgaGVpZ2h0PSIxMDcuOTM3NSIgaWQ9IkNvbW1lbnQiIHJ4PSIyLjUiIHJ5PSIyLjUiIHN0eWxlPSJzdHJva2U6IzE4MTgxODtzdHJva2Utd2lkdGg6MC41OyIgd2lkdGg9IjE0NyIgeD0iNTA0IiB5PSIyNTMiLz48ZWxsaXBzZSBjeD0iNTQ3LjgiIGN5PSIyNjkiIGZpbGw9IiNBREQxQjIiIHJ4PSIxMSIgcnk9IjExIiBzdHlsZT0ic3Ryb2tlOiMxODE4MTg7c3Ryb2tlLXdpZHRoOjEuMDsiLz48cGF0aCBkPSJNNTUxLjQyNSwyNzUgTDU1MS40MjUsMjczLjI1IEw1NDYuMTEyNSwyNzMuMjUgUTU0Ni4xMTI1LDI3My4yNSA1NDYuMTEyNSwyNjkuNjg3NSBMNTUwLjM2MjUsMjY5LjY4NzUgTDU1MC4zNjI1LDI2Ny45Mzc1IEw1NDYuMTEyNSwyNjcuOTM3NSBMNTQ2LjExMjUsMjY1LjQzNzUgTDU1MS40MjUsMjY1LjQzNzUgTDU1MS40MjUsMjYzLjY4NzUgTDU0NC4zNjI1LDI2My42ODc1IFE1NDQuMzYyNSwyNjMuNjg3NSA1NDQuMzYyNSwyNzUgTDU1MS40MjUsMjc1IFogIiBmaWxsPSIjMDAwMDAwIi8+PHRleHQgZmlsbD0iIzAwMDAwMCIgZm9udC1mYW1pbHk9InNhbnMtc2VyaWYiIGZvbnQtc2l6ZT0iMTQiIGxlbmd0aEFkanVzdD0ic3BhY2luZyIgdGV4dExlbmd0aD0iNTEiIHg9IjU2OC4yIiB5PSIyNzQuNzQyMiI+Q29tbWVudDwvdGV4dD48bGluZSBzdHlsZT0ic3Ryb2tlOiMxODE4MTg7c3Ryb2tlLXdpZHRoOjAuNTsiIHgxPSI1MDUiIHgyPSI2NTAiIHkxPSIyODUiIHkyPSIyODUiLz48ZWxsaXBzZSBjeD0iNTE1IiBjeT0iMjk3Ljk5MjIiIGZpbGw9IiMwMDAwMDAiIHJ4PSIzIiByeT0iMyIgc3R5bGU9InN0cm9rZTojMDAwMDAwO3N0cm9rZS13aWR0aDoxLjA7Ii8+PHRleHQgZmlsbD0iIzAwMDAwMCIgZm9udC1mYW1pbHk9InNhbnMtc2VyaWYiIGZvbnQtc2l6ZT0iMTQiIGxlbmd0aEFkanVzdD0ic3BhY2luZyIgdGV4dExlbmd0aD0iMTIxIiB4PSI1MjQiIHk9IjMwMi4yMzQ0Ij5jb21tZW50SWQ6IHN0cmluZzwvdGV4dD48bGluZSBzdHlsZT0ic3Ryb2tlOiMxODE4MTg7c3Ryb2tlLXdpZHRoOjEuMDsiIHgxPSI1MDUiIHgyPSI2NTAiIHkxPSIzMDcuOTg0NCIgeTI9IjMwNy45ODQ0Ii8+PHRleHQgZmlsbD0iIzAwMDAwMCIgZm9udC1mYW1pbHk9InNhbnMtc2VyaWYiIGZvbnQtc2l6ZT0iMTQiIGxlbmd0aEFkanVzdD0ic3BhY2luZyIgdGV4dExlbmd0aD0iOTgiIHg9IjUxMCIgeT0iMzI1LjIxODgiPnVzZXJJZDogc3RyaW5nPC90ZXh0Pjx0ZXh0IGZpbGw9IiMwMDAwMDAiIGZvbnQtZmFtaWx5PSJzYW5zLXNlcmlmIiBmb250LXNpemU9IjE0IiBsZW5ndGhBZGp1c3Q9InNwYWNpbmciIHRleHRMZW5ndGg9IjExMyIgeD0iNTEwIiB5PSIzNDAuMjAzMSI+dXNlcm5hbWU6IHN0cmluZzwvdGV4dD48dGV4dCBmaWxsPSIjMDAwMDAwIiBmb250LWZhbWlseT0ic2Fucy1zZXJpZiIgZm9udC1zaXplPSIxNCIgbGVuZ3RoQWRqdXN0PSJzcGFjaW5nIiB0ZXh0TGVuZ3RoPSIxMDUiIHg9IjUxMCIgeT0iMzU1LjE4NzUiPmNvbnRlbnQ6IHN0cmluZzwvdGV4dD48L2c+PCEtLWNsYXNzIFVzZXJNYW5hZ2VtZW50LS0+PGcgaWQ9ImVsZW1fVXNlck1hbmFnZW1lbnQiPjxyZWN0IGNvZGVMaW5lPSIyOSIgZmlsbD0iI0YxRjFGMSIgaGVpZ2h0PSI2Mi45ODQ0IiBpZD0iVXNlck1hbmFnZW1lbnQiIHJ4PSIyLjUiIHJ5PSIyLjUiIHN0eWxlPSJzdHJva2U6IzE4MTgxODtzdHJva2Utd2lkdGg6MC41OyIgd2lkdGg9IjE5NSIgeD0iNyIgeT0iMTMwIi8+PGVsbGlwc2UgY3g9IjUwLjgiIGN5PSIxNDYiIGZpbGw9IiNBREQxQjIiIHJ4PSIxMSIgcnk9IjExIiBzdHlsZT0ic3Ryb2tlOiMxODE4MTg7c3Ryb2tlLXdpZHRoOjEuMDsiLz48cGF0aCBkPSJNNTQuNDI1LDE1MiBMNTQuNDI1LDE1MC4yNSBMNDkuMTEyNSwxNTAuMjUgUTQ5LjExMjUsMTUwLjI1IDQ5LjExMjUsMTQ2LjY4NzUgTDUzLjM2MjUsMTQ2LjY4NzUgTDUzLjM2MjUsMTQ0LjkzNzUgTDQ5LjExMjUsMTQ0LjkzNzUgTDQ5LjExMjUsMTQyLjQzNzUgTDU0LjQyNSwxNDIuNDM3NSBMNTQuNDI1LDE0MC42ODc1IEw0Ny4zNjI1LDE0MC42ODc1IFE0Ny4zNjI1LDE0MC42ODc1IDQ3LjM2MjUsMTUyIEw1NC40MjUsMTUyIFogIiBmaWxsPSIjMDAwMDAwIi8+PHRleHQgZmlsbD0iIzAwMDAwMCIgZm9udC1mYW1pbHk9InNhbnMtc2VyaWYiIGZvbnQtc2l6ZT0iMTQiIGxlbmd0aEFkanVzdD0ic3BhY2luZyIgdGV4dExlbmd0aD0iOTkiIHg9IjcxLjIiIHk9IjE1MS43NDIyIj5Vc2VyTWFuYWdlbWVudDwvdGV4dD48bGluZSBzdHlsZT0ic3Ryb2tlOiMxODE4MTg7c3Ryb2tlLXdpZHRoOjAuNTsiIHgxPSI4IiB4Mj0iMjAxIiB5MT0iMTYyIiB5Mj0iMTYyIi8+PGVsbGlwc2UgY3g9IjE4IiBjeT0iMTc0Ljk5MjIiIGZpbGw9IiMwMDAwMDAiIHJ4PSIzIiByeT0iMyIgc3R5bGU9InN0cm9rZTojMDAwMDAwO3N0cm9rZS13aWR0aDoxLjA7Ii8+PHRleHQgZmlsbD0iIzAwMDAwMCIgZm9udC1mYW1pbHk9InNhbnMtc2VyaWYiIGZvbnQtc2l6ZT0iMTQiIGxlbmd0aEFkanVzdD0ic3BhY2luZyIgdGV4dExlbmd0aD0iMTY5IiB4PSIyNyIgeT0iMTc5LjIzNDQiPnVzZXJNYW5hZ2VtZW50SWQ6IHN0cmluZzwvdGV4dD48bGluZSBzdHlsZT0ic3Ryb2tlOiMxODE4MTg7c3Ryb2tlLXdpZHRoOjAuNTsiIHgxPSI4IiB4Mj0iMjAxIiB5MT0iMTg0Ljk4NDQiIHkyPSIxODQuOTg0NCIvPjwvZz48IS0tY2xhc3MgUm9vbU1hbmFnZW1lbnQtLT48ZyBpZD0iZWxlbV9Sb29tTWFuYWdlbWVudCI+PHJlY3QgY29kZUxpbmU9IjMzIiBmaWxsPSIjRjFGMUYxIiBoZWlnaHQ9IjYyLjk4NDQiIGlkPSJSb29tTWFuYWdlbWVudCIgcng9IjIuNSIgcnk9IjIuNSIgc3R5bGU9InN0cm9rZTojMTgxODE4O3N0cm9rZS13aWR0aDowLjU7IiB3aWR0aD0iMTk2IiB4PSIyMzcuNSIgeT0iMTMwIi8+PGVsbGlwc2UgY3g9IjI4MS4zIiBjeT0iMTQ2IiBmaWxsPSIjQUREMUIyIiByeD0iMTEiIHJ5PSIxMSIgc3R5bGU9InN0cm9rZTojMTgxODE4O3N0cm9rZS13aWR0aDoxLjA7Ii8+PHBhdGggZD0iTTI4NC45MjUsMTUyIEwyODQuOTI1LDE1MC4yNSBMMjc5LjYxMjUsMTUwLjI1IFEyNzkuNjEyNSwxNTAuMjUgMjc5LjYxMjUsMTQ2LjY4NzUgTDI4My44NjI1LDE0Ni42ODc1IEwyODMuODYyNSwxNDQuOTM3NSBMMjc5LjYxMjUsMTQ0LjkzNzUgTDI3OS42MTI1LDE0Mi40Mzc1IEwyODQuOTI1LDE0Mi40Mzc1IEwyODQuOTI1LDE0MC42ODc1IEwyNzcuODYyNSwxNDAuNjg3NSBRMjc3Ljg2MjUsMTQwLjY4NzUgMjc3Ljg2MjUsMTUyIEwyODQuOTI1LDE1MiBaICIgZmlsbD0iIzAwMDAwMCIvPjx0ZXh0IGZpbGw9IiMwMDAwMDAiIGZvbnQtZmFtaWx5PSJzYW5zLXNlcmlmIiBmb250LXNpemU9IjE0IiBsZW5ndGhBZGp1c3Q9InNwYWNpbmciIHRleHRMZW5ndGg9IjEwMCIgeD0iMzAxLjciIHk9IjE1MS43NDIyIj5Sb29tTWFuYWdlbWVudDwvdGV4dD48bGluZSBzdHlsZT0ic3Ryb2tlOiMxODE4MTg7c3Ryb2tlLXdpZHRoOjAuNTsiIHgxPSIyMzguNSIgeDI9IjQzMi41IiB5MT0iMTYyIiB5Mj0iMTYyIi8+PGVsbGlwc2UgY3g9IjI0OC41IiBjeT0iMTc0Ljk5MjIiIGZpbGw9IiMwMDAwMDAiIHJ4PSIzIiByeT0iMyIgc3R5bGU9InN0cm9rZTojMDAwMDAwO3N0cm9rZS13aWR0aDoxLjA7Ii8+PHRleHQgZmlsbD0iIzAwMDAwMCIgZm9udC1mYW1pbHk9InNhbnMtc2VyaWYiIGZvbnQtc2l6ZT0iMTQiIGxlbmd0aEFkanVzdD0ic3BhY2luZyIgdGV4dExlbmd0aD0iMTcwIiB4PSIyNTcuNSIgeT0iMTc5LjIzNDQiPnJvb21NYW5hZ2VtZW50SWQ6IHN0cmluZzwvdGV4dD48bGluZSBzdHlsZT0ic3Ryb2tlOiMxODE4MTg7c3Ryb2tlLXdpZHRoOjAuNTsiIHgxPSIyMzguNSIgeDI9IjQzMi41IiB5MT0iMTg0Ljk4NDQiIHkyPSIxODQuOTg0NCIvPjwvZz48IS0tY2xhc3MgQ29tbWVudE1hbmFnZW1lbnQtLT48ZyBpZD0iZWxlbV9Db21tZW50TWFuYWdlbWVudCI+PHJlY3QgY29kZUxpbmU9IjM3IiBmaWxsPSIjRjFGMUYxIiBoZWlnaHQ9IjYyLjk4NDQiIGlkPSJDb21tZW50TWFuYWdlbWVudCIgcng9IjIuNSIgcnk9IjIuNSIgc3R5bGU9InN0cm9rZTojMTgxODE4O3N0cm9rZS13aWR0aDowLjU7IiB3aWR0aD0iMjE4IiB4PSI0NjguNSIgeT0iMTMwIi8+PGVsbGlwc2UgY3g9IjUxMi4zIiBjeT0iMTQ2IiBmaWxsPSIjQUREMUIyIiByeD0iMTEiIHJ5PSIxMSIgc3R5bGU9InN0cm9rZTojMTgxODE4O3N0cm9rZS13aWR0aDoxLjA7Ii8+PHBhdGggZD0iTTUxNS45MjUsMTUyIEw1MTUuOTI1LDE1MC4yNSBMNTEwLjYxMjUsMTUwLjI1IFE1MTAuNjEyNSwxNTAuMjUgNTEwLjYxMjUsMTQ2LjY4NzUgTDUxNC44NjI1LDE0Ni42ODc1IEw1MTQuODYyNSwxNDQuOTM3NSBMNTEwLjYxMjUsMTQ0LjkzNzUgTDUxMC42MTI1LDE0Mi40Mzc1IEw1MTUuOTI1LDE0Mi40Mzc1IEw1MTUuOTI1LDE0MC42ODc1IEw1MDguODYyNSwxNDAuNjg3NSBRNTA4Ljg2MjUsMTQwLjY4NzUgNTA4Ljg2MjUsMTUyIEw1MTUuOTI1LDE1MiBaICIgZmlsbD0iIzAwMDAwMCIvPjx0ZXh0IGZpbGw9IiMwMDAwMDAiIGZvbnQtZmFtaWx5PSJzYW5zLXNlcmlmIiBmb250LXNpemU9IjE0IiBsZW5ndGhBZGp1c3Q9InNwYWNpbmciIHRleHRMZW5ndGg9IjEyMiIgeD0iNTMyLjciIHk9IjE1MS43NDIyIj5Db21tZW50TWFuYWdlbWVudDwvdGV4dD48bGluZSBzdHlsZT0ic3Ryb2tlOiMxODE4MTg7c3Ryb2tlLXdpZHRoOjAuNTsiIHgxPSI0NjkuNSIgeDI9IjY4NS41IiB5MT0iMTYyIiB5Mj0iMTYyIi8+PGVsbGlwc2UgY3g9IjQ3OS41IiBjeT0iMTc0Ljk5MjIiIGZpbGw9IiMwMDAwMDAiIHJ4PSIzIiByeT0iMyIgc3R5bGU9InN0cm9rZTojMDAwMDAwO3N0cm9rZS13aWR0aDoxLjA7Ii8+PHRleHQgZmlsbD0iIzAwMDAwMCIgZm9udC1mYW1pbHk9InNhbnMtc2VyaWYiIGZvbnQtc2l6ZT0iMTQiIGxlbmd0aEFkanVzdD0ic3BhY2luZyIgdGV4dExlbmd0aD0iMTkyIiB4PSI0ODguNSIgeT0iMTc5LjIzNDQiPmNvbW1lbnRNYW5hZ2VtZW50SWQ6IHN0cmluZzwvdGV4dD48bGluZSBzdHlsZT0ic3Ryb2tlOiMxODE4MTg7c3Ryb2tlLXdpZHRoOjAuNTsiIHgxPSI0NjkuNSIgeDI9IjY4NS41IiB5MT0iMTg0Ljk4NDQiIHkyPSIxODQuOTg0NCIvPjwvZz48IS0tbGluayBSZWFjdFJpc2UgdG8gVXNlck1hbmFnZW1lbnQtLT48ZyBpZD0ibGlua19SZWFjdFJpc2VfVXNlck1hbmFnZW1lbnQiPjxwYXRoIGNvZGVMaW5lPSI0MSIgZD0iTTI3MC4xMjM5LDczLjc0MyBDMjM1LjEwMzksOTIuMDkzIDIxMy43MzU3LDEwMy4yODkyIDE3OC43MTU3LDEyMS42MjkyICIgZmlsbD0ibm9uZSIgaWQ9IlJlYWN0UmlzZS1Vc2VyTWFuYWdlbWVudCIgc3R5bGU9InN0cm9rZTojMTgxODE4O3N0cm9rZS13aWR0aDoxLjA7Ii8+PGxpbmUgc3R5bGU9InN0cm9rZTojMTgxODE4O3N0cm9rZS13aWR0aDoxLjA7IiB4MT0iMjcxLjgxMDQiIHgyPSIyNzUuNTIzNSIgeTE9IjY4LjM0MzUiIHkyPSI3NS40Mjk2Ii8+PGxpbmUgc3R5bGU9InN0cm9rZTojMTgxODE4O3N0cm9rZS13aWR0aDoxLjA7IiB4MT0iMjY5LjE1MzEiIHgyPSIyNzIuODY2MSIgeTE9IjY5LjczNTgiIHkyPSI3Ni44MjIiLz48bGluZSBzdHlsZT0ic3Ryb2tlOiMxODE4MTg7c3Ryb2tlLXdpZHRoOjEuMDsiIHgxPSIyNzAuMTIzOSIgeDI9IjI3Ny4yMSIgeTE9IjczLjc0MyIgeTI9IjcwLjAzIi8+PGxpbmUgc3R5bGU9InN0cm9rZTojMTgxODE4O3N0cm9rZS13aWR0aDoxLjA7IiB4MT0iMTY5Ljg1NyIgeDI9IjE2NS41NTM2IiB5MT0iMTI2LjI2ODUiIHkyPSIxMzUuMjk1MiIvPjxsaW5lIHN0eWxlPSJzdHJva2U6IzE4MTgxODtzdHJva2Utd2lkdGg6MS4wOyIgeDE9IjE2OS44NTciIHgyPSIxNTkuOTg2NCIgeTE9IjEyNi4yNjg1IiB5Mj0iMTI0LjY2NDgiLz48bGluZSBzdHlsZT0ic3Ryb2tlOiMxODE4MTg7c3Ryb2tlLXdpZHRoOjEuMDsiIHgxPSIxNjkuODU3IiB4Mj0iMTYyLjc3IiB5MT0iMTI2LjI2ODUiIHkyPSIxMjkuOTgiLz48ZWxsaXBzZSBjeD0iMTc1LjE3MjIiIGN5PSIxMjMuNDg1IiBmaWxsPSJub25lIiByeD0iNCIgcnk9IjQiIHN0eWxlPSJzdHJva2U6IzE4MTgxODtzdHJva2Utd2lkdGg6MS4wOyIvPjwvZz48IS0tbGluayBSZWFjdFJpc2UgdG8gUm9vbU1hbmFnZW1lbnQtLT48ZyBpZD0ibGlua19SZWFjdFJpc2VfUm9vbU1hbmFnZW1lbnQiPjxwYXRoIGNvZGVMaW5lPSI0MiIgZD0iTTMzNS41LDc4LjAzIEMzMzUuNSw5Ni4zOCAzMzUuNSw5My42NCAzMzUuNSwxMTEuOTggIiBmaWxsPSJub25lIiBpZD0iUmVhY3RSaXNlLVJvb21NYW5hZ2VtZW50IiBzdHlsZT0ic3Ryb2tlOiMxODE4MTg7c3Ryb2tlLXdpZHRoOjEuMDsiLz48bGluZSBzdHlsZT0ic3Ryb2tlOiMxODE4MTg7c3Ryb2tlLXdpZHRoOjEuMDsiIHgxPSIzMzEuNSIgeDI9IjMzOS41IiB5MT0iNzQuMDMiIHkyPSI3NC4wMyIvPjxsaW5lIHN0eWxlPSJzdHJva2U6IzE4MTgxODtzdHJva2Utd2lkdGg6MS4wOyIgeDE9IjMzMS41IiB4Mj0iMzM5LjUiIHkxPSI3Ny4wMyIgeTI9Ijc3LjAzIi8+PGxpbmUgc3R5bGU9InN0cm9rZTojMTgxODE4O3N0cm9rZS13aWR0aDoxLjA7IiB4MT0iMzM1LjUiIHgyPSIzMzUuNSIgeTE9Ijc4LjAzIiB5Mj0iNzAuMDMiLz48bGluZSBzdHlsZT0ic3Ryb2tlOiMxODE4MTg7c3Ryb2tlLXdpZHRoOjEuMDsiIHgxPSIzMzUuNSIgeDI9IjM0MS41IiB5MT0iMTIxLjk4IiB5Mj0iMTI5Ljk4Ii8+PGxpbmUgc3R5bGU9InN0cm9rZTojMTgxODE4O3N0cm9rZS13aWR0aDoxLjA7IiB4MT0iMzM1LjUiIHgyPSIzMjkuNSIgeTE9IjEyMS45OCIgeTI9IjEyOS45OCIvPjxsaW5lIHN0eWxlPSJzdHJva2U6IzE4MTgxODtzdHJva2Utd2lkdGg6MS4wOyIgeDE9IjMzNS41IiB4Mj0iMzM1LjUiIHkxPSIxMjEuOTgiIHkyPSIxMjkuOTgiLz48ZWxsaXBzZSBjeD0iMzM1LjUiIGN5PSIxMTUuOTgiIGZpbGw9Im5vbmUiIHJ4PSI0IiByeT0iNCIgc3R5bGU9InN0cm9rZTojMTgxODE4O3N0cm9rZS13aWR0aDoxLjA7Ii8+PC9nPjwhLS1saW5rIFJlYWN0UmlzZSB0byBDb21tZW50TWFuYWdlbWVudC0tPjxnIGlkPSJsaW5rX1JlYWN0UmlzZV9Db21tZW50TWFuYWdlbWVudCI+PHBhdGggY29kZUxpbmU9IjQzIiBkPSJNNDAxLjIzNSw3Mi4zNjg1IEM0MzguMTY1LDkwLjgzODUgNDYyLjUyMDMsMTAzLjAxMDIgNDk5Ljk4MDMsMTIxLjc0MDIgIiBmaWxsPSJub25lIiBpZD0iUmVhY3RSaXNlLUNvbW1lbnRNYW5hZ2VtZW50IiBzdHlsZT0ic3Ryb2tlOiMxODE4MTg7c3Ryb2tlLXdpZHRoOjEuMDsiLz48bGluZSBzdHlsZT0ic3Ryb2tlOiMxODE4MTg7c3Ryb2tlLXdpZHRoOjEuMDsiIHgxPSIzOTUuODY4MyIgeDI9IjM5OS40NDY4IiB5MT0iNzQuMTU2OCIgeTI9IjY3LjAwMTciLz48bGluZSBzdHlsZT0ic3Ryb2tlOiMxODE4MTg7c3Ryb2tlLXdpZHRoOjEuMDsiIHgxPSIzOTguNTUxNCIgeDI9IjQwMi4xMjk5IiB5MT0iNzUuNDk4NyIgeTI9IjY4LjM0MzciLz48bGluZSBzdHlsZT0ic3Ryb2tlOiMxODE4MTg7c3Ryb2tlLXdpZHRoOjEuMDsiIHgxPSI0MDEuMjM1IiB4Mj0iMzk0LjA4IiB5MT0iNzIuMzY4NSIgeTI9IjY4Ljc5Ii8+PGxpbmUgc3R5bGU9InN0cm9rZTojMTgxODE4O3N0cm9rZS13aWR0aDoxLjA7IiB4MT0iNTA4LjkyNDYiIHgyPSI1MTguNzYzMyIgeTE9IjEyNi4yMTIzIiB5Mj0iMTI0LjQyMzQiLz48bGluZSBzdHlsZT0ic3Ryb2tlOiMxODE4MTg7c3Ryb2tlLXdpZHRoOjEuMDsiIHgxPSI1MDguOTI0NiIgeDI9IjUxMy4zOTY3IiB5MT0iMTI2LjIxMjMiIHkyPSIxMzUuMTU2NiIvPjxsaW5lIHN0eWxlPSJzdHJva2U6IzE4MTgxODtzdHJva2Utd2lkdGg6MS4wOyIgeDE9IjUwOC45MjQ2IiB4Mj0iNTE2LjA4IiB5MT0iMTI2LjIxMjMiIHkyPSIxMjkuNzkiLz48ZWxsaXBzZSBjeD0iNTAzLjU1OCIgY3k9IjEyMy41MjkiIGZpbGw9Im5vbmUiIHJ4PSI0IiByeT0iNCIgc3R5bGU9InN0cm9rZTojMTgxODE4O3N0cm9rZS13aWR0aDoxLjA7Ii8+PC9nPjwhLS1saW5rIFVzZXJNYW5hZ2VtZW50IHRvIFVzZXItLT48ZyBpZD0ibGlua19Vc2VyTWFuYWdlbWVudF9Vc2VyIj48cGF0aCBjb2RlTGluZT0iNDUiIGQ9Ik0xMDQuNSwyMDEuMjggQzEwNC41LDIxOC42NiAxMDQuNSwyMTQuODYgMTA0LjUsMjM0Ljk1ICIgZmlsbD0ibm9uZSIgaWQ9IlVzZXJNYW5hZ2VtZW50LVVzZXIiIHN0eWxlPSJzdHJva2U6IzE4MTgxODtzdHJva2Utd2lkdGg6MS4wOyIvPjxsaW5lIHN0eWxlPSJzdHJva2U6IzE4MTgxODtzdHJva2Utd2lkdGg6MS4wOyIgeDE9IjEwMC41IiB4Mj0iMTA4LjUiIHkxPSIxOTcuMjgiIHkyPSIxOTcuMjgiLz48bGluZSBzdHlsZT0ic3Ryb2tlOiMxODE4MTg7c3Ryb2tlLXdpZHRoOjEuMDsiIHgxPSIxMDAuNSIgeDI9IjEwOC41IiB5MT0iMjAwLjI4IiB5Mj0iMjAwLjI4Ii8+PGxpbmUgc3R5bGU9InN0cm9rZTojMTgxODE4O3N0cm9rZS13aWR0aDoxLjA7IiB4MT0iMTA0LjUiIHgyPSIxMDQuNSIgeTE9IjIwMS4yOCIgeTI9IjE5My4yOCIvPjxsaW5lIHN0eWxlPSJzdHJva2U6IzE4MTgxODtzdHJva2Utd2lkdGg6MS4wOyIgeDE9IjEwNC41IiB4Mj0iMTEwLjUiIHkxPSIyNDQuOTUiIHkyPSIyNTIuOTUiLz48bGluZSBzdHlsZT0ic3Ryb2tlOiMxODE4MTg7c3Ryb2tlLXdpZHRoOjEuMDsiIHgxPSIxMDQuNSIgeDI9Ijk4LjUiIHkxPSIyNDQuOTUiIHkyPSIyNTIuOTUiLz48bGluZSBzdHlsZT0ic3Ryb2tlOiMxODE4MTg7c3Ryb2tlLXdpZHRoOjEuMDsiIHgxPSIxMDQuNSIgeDI9IjEwNC41IiB5MT0iMjQ0Ljk1IiB5Mj0iMjUyLjk1Ii8+PGVsbGlwc2UgY3g9IjEwNC41IiBjeT0iMjM4Ljk1IiBmaWxsPSJub25lIiByeD0iNCIgcnk9IjQiIHN0eWxlPSJzdHJva2U6IzE4MTgxODtzdHJva2Utd2lkdGg6MS4wOyIvPjwvZz48IS0tbGluayBSb29tTWFuYWdlbWVudCB0byBSb29tLS0+PGcgaWQ9ImxpbmtfUm9vbU1hbmFnZW1lbnRfUm9vbSI+PHBhdGggY29kZUxpbmU9IjQ2IiBkPSJNMzM1LjUsMjAxLjI4IEMzMzUuNSwyMTguNjYgMzM1LjUsMjE0Ljg2IDMzNS41LDIzNC45NSAiIGZpbGw9Im5vbmUiIGlkPSJSb29tTWFuYWdlbWVudC1Sb29tIiBzdHlsZT0ic3Ryb2tlOiMxODE4MTg7c3Ryb2tlLXdpZHRoOjEuMDsiLz48bGluZSBzdHlsZT0ic3Ryb2tlOiMxODE4MTg7c3Ryb2tlLXdpZHRoOjEuMDsiIHgxPSIzMzEuNSIgeDI9IjMzOS41IiB5MT0iMTk3LjI4IiB5Mj0iMTk3LjI4Ii8+PGxpbmUgc3R5bGU9InN0cm9rZTojMTgxODE4O3N0cm9rZS13aWR0aDoxLjA7IiB4MT0iMzMxLjUiIHgyPSIzMzkuNSIgeTE9IjIwMC4yOCIgeTI9IjIwMC4yOCIvPjxsaW5lIHN0eWxlPSJzdHJva2U6IzE4MTgxODtzdHJva2Utd2lkdGg6MS4wOyIgeDE9IjMzNS41IiB4Mj0iMzM1LjUiIHkxPSIyMDEuMjgiIHkyPSIxOTMuMjgiLz48bGluZSBzdHlsZT0ic3Ryb2tlOiMxODE4MTg7c3Ryb2tlLXdpZHRoOjEuMDsiIHgxPSIzMzUuNSIgeDI9IjM0MS41IiB5MT0iMjQ0Ljk1IiB5Mj0iMjUyLjk1Ii8+PGxpbmUgc3R5bGU9InN0cm9rZTojMTgxODE4O3N0cm9rZS13aWR0aDoxLjA7IiB4MT0iMzM1LjUiIHgyPSIzMjkuNSIgeTE9IjI0NC45NSIgeTI9IjI1Mi45NSIvPjxsaW5lIHN0eWxlPSJzdHJva2U6IzE4MTgxODtzdHJva2Utd2lkdGg6MS4wOyIgeDE9IjMzNS41IiB4Mj0iMzM1LjUiIHkxPSIyNDQuOTUiIHkyPSIyNTIuOTUiLz48ZWxsaXBzZSBjeD0iMzM1LjUiIGN5PSIyMzguOTUiIGZpbGw9Im5vbmUiIHJ4PSI0IiByeT0iNCIgc3R5bGU9InN0cm9rZTojMTgxODE4O3N0cm9rZS13aWR0aDoxLjA7Ii8+PC9nPjwhLS1saW5rIENvbW1lbnRNYW5hZ2VtZW50IHRvIENvbW1lbnQtLT48ZyBpZD0ibGlua19Db21tZW50TWFuYWdlbWVudF9Db21tZW50Ij48cGF0aCBjb2RlTGluZT0iNDciIGQ9Ik01NzcuNSwyMDEuMjggQzU3Ny41LDIxOC42NiA1NzcuNSwyMTQuODYgNTc3LjUsMjM0Ljk1ICIgZmlsbD0ibm9uZSIgaWQ9IkNvbW1lbnRNYW5hZ2VtZW50LUNvbW1lbnQiIHN0eWxlPSJzdHJva2U6IzE4MTgxODtzdHJva2Utd2lkdGg6MS4wOyIvPjxsaW5lIHN0eWxlPSJzdHJva2U6IzE4MTgxODtzdHJva2Utd2lkdGg6MS4wOyIgeDE9IjU3My41IiB4Mj0iNTgxLjUiIHkxPSIxOTcuMjgiIHkyPSIxOTcuMjgiLz48bGluZSBzdHlsZT0ic3Ryb2tlOiMxODE4MTg7c3Ryb2tlLXdpZHRoOjEuMDsiIHgxPSI1NzMuNSIgeDI9IjU4MS41IiB5MT0iMjAwLjI4IiB5Mj0iMjAwLjI4Ii8+PGxpbmUgc3R5bGU9InN0cm9rZTojMTgxODE4O3N0cm9rZS13aWR0aDoxLjA7IiB4MT0iNTc3LjUiIHgyPSI1NzcuNSIgeTE9IjIwMS4yOCIgeTI9IjE5My4yOCIvPjxsaW5lIHN0eWxlPSJzdHJva2U6IzE4MTgxODtzdHJva2Utd2lkdGg6MS4wOyIgeDE9IjU3Ny41IiB4Mj0iNTgzLjUiIHkxPSIyNDQuOTUiIHkyPSIyNTIuOTUiLz48bGluZSBzdHlsZT0ic3Ryb2tlOiMxODE4MTg7c3Ryb2tlLXdpZHRoOjEuMDsiIHgxPSI1NzcuNSIgeDI9IjU3MS41IiB5MT0iMjQ0Ljk1IiB5Mj0iMjUyLjk1Ii8+PGxpbmUgc3R5bGU9InN0cm9rZTojMTgxODE4O3N0cm9rZS13aWR0aDoxLjA7IiB4MT0iNTc3LjUiIHgyPSI1NzcuNSIgeTE9IjI0NC45NSIgeTI9IjI1Mi45NSIvPjxlbGxpcHNlIGN4PSI1NzcuNSIgY3k9IjIzOC45NSIgZmlsbD0ibm9uZSIgcng9IjQiIHJ5PSI0IiBzdHlsZT0ic3Ryb2tlOiMxODE4MTg7c3Ryb2tlLXdpZHRoOjEuMDsiLz48L2c+PCEtLVNSQz1bWlBCRDNpOFczQ1ZsVkdoRTlobzBMeHRpdTZOSDFvMVJpdjM4SHUxNXBVUXhvdnBQTGMyOU42Wl9SVmNyM1FZMzMyek1lc1gyQkpzbzBMV3kxb1FpaFRlWnl5NTl0UzRSMEVWQ2NxVXQ5Rk5Ic01IRDhrVlZJbWs1SDRTYnY5cWVMZFpfQ0F1NGdPckgyeUg1dnF6OHVyMDRSQXpvcWlfSGRENUZBbnJITHpCOUExTkQxVFJDVmZiTjY3VUl5WlFDM2w2SGRVclRYMU9UNGNmRnY2Zmw5T0xBSC1IWXZNXzRHZDZKSGNaei1ZZDZhTkNwOUR0ZFNUZlo3aXl3MEtXTWlXNTFDbDY2MFZiOGJGMDFdLS0+PC9nPjwvc3ZnPg==;" vertex="1" parent="1">
            <mxGeometry x="80" y="130" width="693" height="367" as="geometry" />
          </mxCell>
        </UserObject>
        <UserObject label="" plantUmlData="{&#xa;  &quot;data&quot;: &quot;@startuml\n\nentity User {\n    * userId: string\n    --\n    name: string\n    email: string\n    password: string\n    googleToken: string\n}\n\nentity Room {\n    * roomId: string\n    --\n    createdByUserId: string\n    code: string\n    createdTime: Date\n    expiredTime: Date\n}\n\nentity Comment {\n    * commentId: string\n    --\n    roomId: string\n    userId: string\n    content: string\n    upvoted: boolean\n    createdTime: Date\n}\n\nentity Participant {\n    * participantId: string\n    --\n    roomId: string\n    userId: string\n}\n\nentity Upvote {\n    * upvoteId: string\n    --\n    commentId: string\n    userId: string\n}\n\nentity RoomStats {\n    * roomStatsId: string\n    --\n    roomId: string\n    totalParticipants: int\n    totalComments: int\n    totalUpvotes: int\n    totalNormalComments: int\n}\n\nentity RoomAccessLog {\n    * accessLogId: string\n    --\n    roomId: string\n    userId: string\n    accessTime: Date\n}\n\nentity UserActivityLog {\n    * activityLogId: string\n    --\n    userId: string\n    activity: string\n    activityTime: Date\n}\n\nentity RoomPermission {\n    * permissionId: string\n    --\n    userId: string\n    roomId: string\n    permissionType: string\n}\n\nUser ||--o{ Room\nUser ||--o{ Comment\nUser ||--o{ Participant\nUser ||--o{ UserActivityLog\nRoom ||--o{ Participant\nComment ||--o{ Upvote\nRoom ||--o{ RoomStats\nRoom ||--o{ RoomAccessLog\nUser ||--o{ RoomPermission\nRoom ||--o{ RoomPermission\n\n@enduml&quot;,&#xa;  &quot;format&quot;: &quot;svg&quot;&#xa;}" id="Xp2U1Py2a4tQiPsUo6Td-2">
          <mxCell style="shape=image;noLabel=1;verticalAlign=top;aspect=fixed;imageAspect=0;image=data:image/svg+xml,PD94bWwgdmVyc2lvbj0iMS4wIiBlbmNvZGluZz0idXMtYXNjaWkiIHN0YW5kYWxvbmU9Im5vIj8+PHN2ZyB4bWxucz0iaHR0cDovL3d3dy53My5vcmcvMjAwMC9zdmciIHhtbG5zOnhsaW5rPSJodHRwOi8vd3d3LnczLm9yZy8xOTk5L3hsaW5rIiBjb250ZW50U3R5bGVUeXBlPSJ0ZXh0L2NzcyIgaGVpZ2h0PSI1MzJweCIgcHJlc2VydmVBc3BlY3RSYXRpbz0ibm9uZSIgc3R5bGU9IndpZHRoOjEwOTdweDtoZWlnaHQ6NTMycHg7YmFja2dyb3VuZDojRkZGRkZGOyIgdmVyc2lvbj0iMS4xIiB2aWV3Qm94PSIwIDAgMTA5NyA1MzIiIHdpZHRoPSIxMDk3cHgiIHpvb21BbmRQYW49Im1hZ25pZnkiPjxkZWZzLz48Zz48IS0tY2xhc3MgVXNlci0tPjxnIGlkPSJlbGVtX1VzZXIiPjxyZWN0IGNvZGVMaW5lPSIxIiBmaWxsPSIjRjFGMUYxIiBoZWlnaHQ9IjEyMi45MjE5IiBpZD0iVXNlciIgcng9IjIuNSIgcnk9IjIuNSIgc3R5bGU9InN0cm9rZTojMTgxODE4O3N0cm9rZS13aWR0aDowLjU7IiB3aWR0aD0iMTQ1IiB4PSI2MDkiIHk9IjciLz48ZWxsaXBzZSBjeD0iNjYzLjI1IiBjeT0iMjMiIGZpbGw9IiNBREQxQjIiIHJ4PSIxMSIgcnk9IjExIiBzdHlsZT0ic3Ryb2tlOiMxODE4MTg7c3Ryb2tlLXdpZHRoOjEuMDsiLz48cGF0aCBkPSJNNjY2Ljg3NSwyOSBMNjY2Ljg3NSwyNy4yNSBMNjYxLjU2MjUsMjcuMjUgUTY2MS41NjI1LDI3LjI1IDY2MS41NjI1LDIzLjY4NzUgTDY2NS44MTI1LDIzLjY4NzUgTDY2NS44MTI1LDIxLjkzNzUgTDY2MS41NjI1LDIxLjkzNzUgTDY2MS41NjI1LDE5LjQzNzUgTDY2Ni44NzUsMTkuNDM3NSBMNjY2Ljg3NSwxNy42ODc1IEw2NTkuODEyNSwxNy42ODc1IFE2NTkuODEyNSwxNy42ODc1IDY1OS44MTI1LDI5IEw2NjYuODc1LDI5IFogIiBmaWxsPSIjMDAwMDAwIi8+PHRleHQgZmlsbD0iIzAwMDAwMCIgZm9udC1mYW1pbHk9InNhbnMtc2VyaWYiIGZvbnQtc2l6ZT0iMTQiIGxlbmd0aEFkanVzdD0ic3BhY2luZyIgdGV4dExlbmd0aD0iMjgiIHg9IjY4My43NSIgeT0iMjguNzQyMiI+VXNlcjwvdGV4dD48bGluZSBzdHlsZT0ic3Ryb2tlOiMxODE4MTg7c3Ryb2tlLXdpZHRoOjAuNTsiIHgxPSI2MTAiIHgyPSI3NTMiIHkxPSIzOSIgeTI9IjM5Ii8+PGVsbGlwc2UgY3g9IjYyMCIgY3k9IjUxLjk5MjIiIGZpbGw9IiMwMDAwMDAiIHJ4PSIzIiByeT0iMyIgc3R5bGU9InN0cm9rZTojMDAwMDAwO3N0cm9rZS13aWR0aDoxLjA7Ii8+PHRleHQgZmlsbD0iIzAwMDAwMCIgZm9udC1mYW1pbHk9InNhbnMtc2VyaWYiIGZvbnQtc2l6ZT0iMTQiIGxlbmd0aEFkanVzdD0ic3BhY2luZyIgdGV4dExlbmd0aD0iOTgiIHg9IjYyOSIgeT0iNTYuMjM0NCI+dXNlcklkOiBzdHJpbmc8L3RleHQ+PGxpbmUgc3R5bGU9InN0cm9rZTojMTgxODE4O3N0cm9rZS13aWR0aDoxLjA7IiB4MT0iNjEwIiB4Mj0iNzUzIiB5MT0iNjEuOTg0NCIgeTI9IjYxLjk4NDQiLz48dGV4dCBmaWxsPSIjMDAwMDAwIiBmb250LWZhbWlseT0ic2Fucy1zZXJpZiIgZm9udC1zaXplPSIxNCIgbGVuZ3RoQWRqdXN0PSJzcGFjaW5nIiB0ZXh0TGVuZ3RoPSI4NSIgeD0iNjE1IiB5PSI3OS4yMTg4Ij5uYW1lOiBzdHJpbmc8L3RleHQ+PHRleHQgZmlsbD0iIzAwMDAwMCIgZm9udC1mYW1pbHk9InNhbnMtc2VyaWYiIGZvbnQtc2l6ZT0iMTQiIGxlbmd0aEFkanVzdD0ic3BhY2luZyIgdGV4dExlbmd0aD0iOTIiIHg9IjYxNSIgeT0iOTQuMjAzMSI+ZW1haWw6IHN0cmluZzwvdGV4dD48dGV4dCBmaWxsPSIjMDAwMDAwIiBmb250LWZhbWlseT0ic2Fucy1zZXJpZiIgZm9udC1zaXplPSIxNCIgbGVuZ3RoQWRqdXN0PSJzcGFjaW5nIiB0ZXh0TGVuZ3RoPSIxMTMiIHg9IjYxNSIgeT0iMTA5LjE4NzUiPnBhc3N3b3JkOiBzdHJpbmc8L3RleHQ+PHRleHQgZmlsbD0iIzAwMDAwMCIgZm9udC1mYW1pbHk9InNhbnMtc2VyaWYiIGZvbnQtc2l6ZT0iMTQiIGxlbmd0aEFkanVzdD0ic3BhY2luZyIgdGV4dExlbmd0aD0iMTMzIiB4PSI2MTUiIHk9IjEyNC4xNzE5Ij5nb29nbGVUb2tlbjogc3RyaW5nPC90ZXh0PjwvZz48IS0tY2xhc3MgUm9vbS0tPjxnIGlkPSJlbGVtX1Jvb20iPjxyZWN0IGNvZGVMaW5lPSIxMCIgZmlsbD0iI0YxRjFGMSIgaGVpZ2h0PSIxMjIuOTIxOSIgaWQ9IlJvb20iIHJ4PSIyLjUiIHJ5PSIyLjUiIHN0eWxlPSJzdHJva2U6IzE4MTgxODtzdHJva2Utd2lkdGg6MC41OyIgd2lkdGg9IjE3MyIgeD0iNDI2IiB5PSIxOTcuNSIvPjxlbGxpcHNlIGN4PSI0OTMuNzUiIGN5PSIyMTMuNSIgZmlsbD0iI0FERDFCMiIgcng9IjExIiByeT0iMTEiIHN0eWxlPSJzdHJva2U6IzE4MTgxODtzdHJva2Utd2lkdGg6MS4wOyIvPjxwYXRoIGQ9Ik00OTcuMzc1LDIxOS41IEw0OTcuMzc1LDIxNy43NSBMNDkyLjA2MjUsMjE3Ljc1IFE0OTIuMDYyNSwyMTcuNzUgNDkyLjA2MjUsMjE0LjE4NzUgTDQ5Ni4zMTI1LDIxNC4xODc1IEw0OTYuMzEyNSwyMTIuNDM3NSBMNDkyLjA2MjUsMjEyLjQzNzUgTDQ5Mi4wNjI1LDIwOS45Mzc1IEw0OTcuMzc1LDIwOS45Mzc1IEw0OTcuMzc1LDIwOC4xODc1IEw0OTAuMzEyNSwyMDguMTg3NSBRNDkwLjMxMjUsMjA4LjE4NzUgNDkwLjMxMjUsMjE5LjUgTDQ5Ny4zNzUsMjE5LjUgWiAiIGZpbGw9IiMwMDAwMDAiLz48dGV4dCBmaWxsPSIjMDAwMDAwIiBmb250LWZhbWlseT0ic2Fucy1zZXJpZiIgZm9udC1zaXplPSIxNCIgbGVuZ3RoQWRqdXN0PSJzcGFjaW5nIiB0ZXh0TGVuZ3RoPSIyOSIgeD0iNTE0LjI1IiB5PSIyMTkuMjQyMiI+Um9vbTwvdGV4dD48bGluZSBzdHlsZT0ic3Ryb2tlOiMxODE4MTg7c3Ryb2tlLXdpZHRoOjAuNTsiIHgxPSI0MjciIHgyPSI1OTgiIHkxPSIyMjkuNSIgeTI9IjIyOS41Ii8+PGVsbGlwc2UgY3g9IjQzNyIgY3k9IjI0Mi40OTIyIiBmaWxsPSIjMDAwMDAwIiByeD0iMyIgcnk9IjMiIHN0eWxlPSJzdHJva2U6IzAwMDAwMDtzdHJva2Utd2lkdGg6MS4wOyIvPjx0ZXh0IGZpbGw9IiMwMDAwMDAiIGZvbnQtZmFtaWx5PSJzYW5zLXNlcmlmIiBmb250LXNpemU9IjE0IiBsZW5ndGhBZGp1c3Q9InNwYWNpbmciIHRleHRMZW5ndGg9Ijk5IiB4PSI0NDYiIHk9IjI0Ni43MzQ0Ij5yb29tSWQ6IHN0cmluZzwvdGV4dD48bGluZSBzdHlsZT0ic3Ryb2tlOiMxODE4MTg7c3Ryb2tlLXdpZHRoOjEuMDsiIHgxPSI0MjciIHgyPSI1OTgiIHkxPSIyNTIuNDg0NCIgeTI9IjI1Mi40ODQ0Ii8+PHRleHQgZmlsbD0iIzAwMDAwMCIgZm9udC1mYW1pbHk9InNhbnMtc2VyaWYiIGZvbnQtc2l6ZT0iMTQiIGxlbmd0aEFkanVzdD0ic3BhY2luZyIgdGV4dExlbmd0aD0iMTYxIiB4PSI0MzIiIHk9IjI2OS43MTg4Ij5jcmVhdGVkQnlVc2VySWQ6IHN0cmluZzwvdGV4dD48dGV4dCBmaWxsPSIjMDAwMDAwIiBmb250LWZhbWlseT0ic2Fucy1zZXJpZiIgZm9udC1zaXplPSIxNCIgbGVuZ3RoQWRqdXN0PSJzcGFjaW5nIiB0ZXh0TGVuZ3RoPSI4NCIgeD0iNDMyIiB5PSIyODQuNzAzMSI+Y29kZTogc3RyaW5nPC90ZXh0Pjx0ZXh0IGZpbGw9IiMwMDAwMDAiIGZvbnQtZmFtaWx5PSJzYW5zLXNlcmlmIiBmb250LXNpemU9IjE0IiBsZW5ndGhBZGp1c3Q9InNwYWNpbmciIHRleHRMZW5ndGg9IjEyMCIgeD0iNDMyIiB5PSIyOTkuNjg3NSI+Y3JlYXRlZFRpbWU6IERhdGU8L3RleHQ+PHRleHQgZmlsbD0iIzAwMDAwMCIgZm9udC1mYW1pbHk9InNhbnMtc2VyaWYiIGZvbnQtc2l6ZT0iMTQiIGxlbmd0aEFkanVzdD0ic3BhY2luZyIgdGV4dExlbmd0aD0iMTIwIiB4PSI0MzIiIHk9IjMxNC42NzE5Ij5leHBpcmVkVGltZTogRGF0ZTwvdGV4dD48L2c+PCEtLWNsYXNzIENvbW1lbnQtLT48ZyBpZD0iZWxlbV9Db21tZW50Ij48cmVjdCBjb2RlTGluZT0iMTkiIGZpbGw9IiNGMUYxRjEiIGhlaWdodD0iMTM3LjkwNjMiIGlkPSJDb21tZW50IiByeD0iMi41IiByeT0iMi41IiBzdHlsZT0ic3Ryb2tlOiMxODE4MTg7c3Ryb2tlLXdpZHRoOjAuNTsiIHdpZHRoPSIxNDciIHg9IjczNSIgeT0iMTkwIi8+PGVsbGlwc2UgY3g9Ijc3OC44IiBjeT0iMjA2IiBmaWxsPSIjQUREMUIyIiByeD0iMTEiIHJ5PSIxMSIgc3R5bGU9InN0cm9rZTojMTgxODE4O3N0cm9rZS13aWR0aDoxLjA7Ii8+PHBhdGggZD0iTTc4Mi40MjUsMjEyIEw3ODIuNDI1LDIxMC4yNSBMNzc3LjExMjUsMjEwLjI1IFE3NzcuMTEyNSwyMTAuMjUgNzc3LjExMjUsMjA2LjY4NzUgTDc4MS4zNjI1LDIwNi42ODc1IEw3ODEuMzYyNSwyMDQuOTM3NSBMNzc3LjExMjUsMjA0LjkzNzUgTDc3Ny4xMTI1LDIwMi40Mzc1IEw3ODIuNDI1LDIwMi40Mzc1IEw3ODIuNDI1LDIwMC42ODc1IEw3NzUuMzYyNSwyMDAuNjg3NSBRNzc1LjM2MjUsMjAwLjY4NzUgNzc1LjM2MjUsMjEyIEw3ODIuNDI1LDIxMiBaICIgZmlsbD0iIzAwMDAwMCIvPjx0ZXh0IGZpbGw9IiMwMDAwMDAiIGZvbnQtZmFtaWx5PSJzYW5zLXNlcmlmIiBmb250LXNpemU9IjE0IiBsZW5ndGhBZGp1c3Q9InNwYWNpbmciIHRleHRMZW5ndGg9IjUxIiB4PSI3OTkuMiIgeT0iMjExLjc0MjIiPkNvbW1lbnQ8L3RleHQ+PGxpbmUgc3R5bGU9InN0cm9rZTojMTgxODE4O3N0cm9rZS13aWR0aDowLjU7IiB4MT0iNzM2IiB4Mj0iODgxIiB5MT0iMjIyIiB5Mj0iMjIyIi8+PGVsbGlwc2UgY3g9Ijc0NiIgY3k9IjIzNC45OTIyIiBmaWxsPSIjMDAwMDAwIiByeD0iMyIgcnk9IjMiIHN0eWxlPSJzdHJva2U6IzAwMDAwMDtzdHJva2Utd2lkdGg6MS4wOyIvPjx0ZXh0IGZpbGw9IiMwMDAwMDAiIGZvbnQtZmFtaWx5PSJzYW5zLXNlcmlmIiBmb250LXNpemU9IjE0IiBsZW5ndGhBZGp1c3Q9InNwYWNpbmciIHRleHRMZW5ndGg9IjEyMSIgeD0iNzU1IiB5PSIyMzkuMjM0NCI+Y29tbWVudElkOiBzdHJpbmc8L3RleHQ+PGxpbmUgc3R5bGU9InN0cm9rZTojMTgxODE4O3N0cm9rZS13aWR0aDoxLjA7IiB4MT0iNzM2IiB4Mj0iODgxIiB5MT0iMjQ0Ljk4NDQiIHkyPSIyNDQuOTg0NCIvPjx0ZXh0IGZpbGw9IiMwMDAwMDAiIGZvbnQtZmFtaWx5PSJzYW5zLXNlcmlmIiBmb250LXNpemU9IjE0IiBsZW5ndGhBZGp1c3Q9InNwYWNpbmciIHRleHRMZW5ndGg9Ijk5IiB4PSI3NDEiIHk9IjI2Mi4yMTg4Ij5yb29tSWQ6IHN0cmluZzwvdGV4dD48dGV4dCBmaWxsPSIjMDAwMDAwIiBmb250LWZhbWlseT0ic2Fucy1zZXJpZiIgZm9udC1zaXplPSIxNCIgbGVuZ3RoQWRqdXN0PSJzcGFjaW5nIiB0ZXh0TGVuZ3RoPSI5OCIgeD0iNzQxIiB5PSIyNzcuMjAzMSI+dXNlcklkOiBzdHJpbmc8L3RleHQ+PHRleHQgZmlsbD0iIzAwMDAwMCIgZm9udC1mYW1pbHk9InNhbnMtc2VyaWYiIGZvbnQtc2l6ZT0iMTQiIGxlbmd0aEFkanVzdD0ic3BhY2luZyIgdGV4dExlbmd0aD0iMTA1IiB4PSI3NDEiIHk9IjI5Mi4xODc1Ij5jb250ZW50OiBzdHJpbmc8L3RleHQ+PHRleHQgZmlsbD0iIzAwMDAwMCIgZm9udC1mYW1pbHk9InNhbnMtc2VyaWYiIGZvbnQtc2l6ZT0iMTQiIGxlbmd0aEFkanVzdD0ic3BhY2luZyIgdGV4dExlbmd0aD0iMTEyIiB4PSI3NDEiIHk9IjMwNy4xNzE5Ij51cHZvdGVkOiBib29sZWFuPC90ZXh0Pjx0ZXh0IGZpbGw9IiMwMDAwMDAiIGZvbnQtZmFtaWx5PSJzYW5zLXNlcmlmIiBmb250LXNpemU9IjE0IiBsZW5ndGhBZGp1c3Q9InNwYWNpbmciIHRleHRMZW5ndGg9IjEyMCIgeD0iNzQxIiB5PSIzMjIuMTU2MyI+Y3JlYXRlZFRpbWU6IERhdGU8L3RleHQ+PC9nPjwhLS1jbGFzcyBQYXJ0aWNpcGFudC0tPjxnIGlkPSJlbGVtX1BhcnRpY2lwYW50Ij48cmVjdCBjb2RlTGluZT0iMjkiIGZpbGw9IiNGMUYxRjEiIGhlaWdodD0iOTIuOTUzMSIgaWQ9IlBhcnRpY2lwYW50IiByeD0iMi41IiByeT0iMi41IiBzdHlsZT0ic3Ryb2tlOiMxODE4MTg7c3Ryb2tlLXdpZHRoOjAuNTsiIHdpZHRoPSIxNzMiIHg9IjciIHk9IjQxMC41Ii8+PGVsbGlwc2UgY3g9IjUwLjgiIGN5PSI0MjYuNSIgZmlsbD0iI0FERDFCMiIgcng9IjExIiByeT0iMTEiIHN0eWxlPSJzdHJva2U6IzE4MTgxODtzdHJva2Utd2lkdGg6MS4wOyIvPjxwYXRoIGQ9Ik01NC40MjUsNDMyLjUgTDU0LjQyNSw0MzAuNzUgTDQ5LjExMjUsNDMwLjc1IFE0OS4xMTI1LDQzMC43NSA0OS4xMTI1LDQyNy4xODc1IEw1My4zNjI1LDQyNy4xODc1IEw1My4zNjI1LDQyNS40Mzc1IEw0OS4xMTI1LDQyNS40Mzc1IEw0OS4xMTI1LDQyMi45Mzc1IEw1NC40MjUsNDIyLjkzNzUgTDU0LjQyNSw0MjEuMTg3NSBMNDcuMzYyNSw0MjEuMTg3NSBRNDcuMzYyNSw0MjEuMTg3NSA0Ny4zNjI1LDQzMi41IEw1NC40MjUsNDMyLjUgWiAiIGZpbGw9IiMwMDAwMDAiLz48dGV4dCBmaWxsPSIjMDAwMDAwIiBmb250LWZhbWlseT0ic2Fucy1zZXJpZiIgZm9udC1zaXplPSIxNCIgbGVuZ3RoQWRqdXN0PSJzcGFjaW5nIiB0ZXh0TGVuZ3RoPSI3NyIgeD0iNzEuMiIgeT0iNDMyLjI0MjIiPlBhcnRpY2lwYW50PC90ZXh0PjxsaW5lIHN0eWxlPSJzdHJva2U6IzE4MTgxODtzdHJva2Utd2lkdGg6MC41OyIgeDE9IjgiIHgyPSIxNzkiIHkxPSI0NDIuNSIgeTI9IjQ0Mi41Ii8+PGVsbGlwc2UgY3g9IjE4IiBjeT0iNDU1LjQ5MjIiIGZpbGw9IiMwMDAwMDAiIHJ4PSIzIiByeT0iMyIgc3R5bGU9InN0cm9rZTojMDAwMDAwO3N0cm9rZS13aWR0aDoxLjA7Ii8+PHRleHQgZmlsbD0iIzAwMDAwMCIgZm9udC1mYW1pbHk9InNhbnMtc2VyaWYiIGZvbnQtc2l6ZT0iMTQiIGxlbmd0aEFkanVzdD0ic3BhY2luZyIgdGV4dExlbmd0aD0iMTQ3IiB4PSIyNyIgeT0iNDU5LjczNDQiPnBhcnRpY2lwYW50SWQ6IHN0cmluZzwvdGV4dD48bGluZSBzdHlsZT0ic3Ryb2tlOiMxODE4MTg7c3Ryb2tlLXdpZHRoOjEuMDsiIHgxPSI4IiB4Mj0iMTc5IiB5MT0iNDY1LjQ4NDQiIHkyPSI0NjUuNDg0NCIvPjx0ZXh0IGZpbGw9IiMwMDAwMDAiIGZvbnQtZmFtaWx5PSJzYW5zLXNlcmlmIiBmb250LXNpemU9IjE0IiBsZW5ndGhBZGp1c3Q9InNwYWNpbmciIHRleHRMZW5ndGg9Ijk5IiB4PSIxMyIgeT0iNDgyLjcxODgiPnJvb21JZDogc3RyaW5nPC90ZXh0Pjx0ZXh0IGZpbGw9IiMwMDAwMDAiIGZvbnQtZmFtaWx5PSJzYW5zLXNlcmlmIiBmb250LXNpemU9IjE0IiBsZW5ndGhBZGp1c3Q9InNwYWNpbmciIHRleHRMZW5ndGg9Ijk4IiB4PSIxMyIgeT0iNDk3LjcwMzEiPnVzZXJJZDogc3RyaW5nPC90ZXh0PjwvZz48IS0tY2xhc3MgVXB2b3RlLS0+PGcgaWQ9ImVsZW1fVXB2b3RlIj48cmVjdCBjb2RlTGluZT0iMzYiIGZpbGw9IiNGMUYxRjEiIGhlaWdodD0iOTIuOTUzMSIgaWQ9IlVwdm90ZSIgcng9IjIuNSIgcnk9IjIuNSIgc3R5bGU9InN0cm9rZTojMTgxODE4O3N0cm9rZS13aWR0aDowLjU7IiB3aWR0aD0iMTM4IiB4PSI4MjkuNSIgeT0iNDEwLjUiLz48ZWxsaXBzZSBjeD0iODczLjMiIGN5PSI0MjYuNSIgZmlsbD0iI0FERDFCMiIgcng9IjExIiByeT0iMTEiIHN0eWxlPSJzdHJva2U6IzE4MTgxODtzdHJva2Utd2lkdGg6MS4wOyIvPjxwYXRoIGQ9Ik04NzYuOTI1LDQzMi41IEw4NzYuOTI1LDQzMC43NSBMODcxLjYxMjUsNDMwLjc1IFE4NzEuNjEyNSw0MzAuNzUgODcxLjYxMjUsNDI3LjE4NzUgTDg3NS44NjI1LDQyNy4xODc1IEw4NzUuODYyNSw0MjUuNDM3NSBMODcxLjYxMjUsNDI1LjQzNzUgTDg3MS42MTI1LDQyMi45Mzc1IEw4NzYuOTI1LDQyMi45Mzc1IEw4NzYuOTI1LDQyMS4xODc1IEw4NjkuODYyNSw0MjEuMTg3NSBRODY5Ljg2MjUsNDIxLjE4NzUgODY5Ljg2MjUsNDMyLjUgTDg3Ni45MjUsNDMyLjUgWiAiIGZpbGw9IiMwMDAwMDAiLz48dGV4dCBmaWxsPSIjMDAwMDAwIiBmb250LWZhbWlseT0ic2Fucy1zZXJpZiIgZm9udC1zaXplPSIxNCIgbGVuZ3RoQWRqdXN0PSJzcGFjaW5nIiB0ZXh0TGVuZ3RoPSI0MiIgeD0iODkzLjciIHk9IjQzMi4yNDIyIj5VcHZvdGU8L3RleHQ+PGxpbmUgc3R5bGU9InN0cm9rZTojMTgxODE4O3N0cm9rZS13aWR0aDowLjU7IiB4MT0iODMwLjUiIHgyPSI5NjYuNSIgeTE9IjQ0Mi41IiB5Mj0iNDQyLjUiLz48ZWxsaXBzZSBjeD0iODQwLjUiIGN5PSI0NTUuNDkyMiIgZmlsbD0iIzAwMDAwMCIgcng9IjMiIHJ5PSIzIiBzdHlsZT0ic3Ryb2tlOiMwMDAwMDA7c3Ryb2tlLXdpZHRoOjEuMDsiLz48dGV4dCBmaWxsPSIjMDAwMDAwIiBmb250LWZhbWlseT0ic2Fucy1zZXJpZiIgZm9udC1zaXplPSIxNCIgbGVuZ3RoQWRqdXN0PSJzcGFjaW5nIiB0ZXh0TGVuZ3RoPSIxMTIiIHg9Ijg0OS41IiB5PSI0NTkuNzM0NCI+dXB2b3RlSWQ6IHN0cmluZzwvdGV4dD48bGluZSBzdHlsZT0ic3Ryb2tlOiMxODE4MTg7c3Ryb2tlLXdpZHRoOjEuMDsiIHgxPSI4MzAuNSIgeDI9Ijk2Ni41IiB5MT0iNDY1LjQ4NDQiIHkyPSI0NjUuNDg0NCIvPjx0ZXh0IGZpbGw9IiMwMDAwMDAiIGZvbnQtZmFtaWx5PSJzYW5zLXNlcmlmIiBmb250LXNpemU9IjE0IiBsZW5ndGhBZGp1c3Q9InNwYWNpbmciIHRleHRMZW5ndGg9IjEyMSIgeD0iODM1LjUiIHk9IjQ4Mi43MTg4Ij5jb21tZW50SWQ6IHN0cmluZzwvdGV4dD48dGV4dCBmaWxsPSIjMDAwMDAwIiBmb250LWZhbWlseT0ic2Fucy1zZXJpZiIgZm9udC1zaXplPSIxNCIgbGVuZ3RoQWRqdXN0PSJzcGFjaW5nIiB0ZXh0TGVuZ3RoPSI5OCIgeD0iODM1LjUiIHk9IjQ5Ny43MDMxIj51c2VySWQ6IHN0cmluZzwvdGV4dD48L2c+PCEtLWNsYXNzIFJvb21TdGF0cy0tPjxnIGlkPSJlbGVtX1Jvb21TdGF0cyI+PHJlY3QgY29kZUxpbmU9IjQzIiBmaWxsPSIjRjFGMUYxIiBoZWlnaHQ9IjEzNy45MDYzIiBpZD0iUm9vbVN0YXRzIiByeD0iMi41IiByeT0iMi41IiBzdHlsZT0ic3Ryb2tlOiMxODE4MTg7c3Ryb2tlLXdpZHRoOjAuNTsiIHdpZHRoPSIxODMiIHg9IjIxNSIgeT0iMzg4Ii8+PGVsbGlwc2UgY3g9IjI3MC4yNSIgY3k9IjQwNCIgZmlsbD0iI0FERDFCMiIgcng9IjExIiByeT0iMTEiIHN0eWxlPSJzdHJva2U6IzE4MTgxODtzdHJva2Utd2lkdGg6MS4wOyIvPjxwYXRoIGQ9Ik0yNzMuODc1LDQxMCBMMjczLjg3NSw0MDguMjUgTDI2OC41NjI1LDQwOC4yNSBRMjY4LjU2MjUsNDA4LjI1IDI2OC41NjI1LDQwNC42ODc1IEwyNzIuODEyNSw0MDQuNjg3NSBMMjcyLjgxMjUsNDAyLjkzNzUgTDI2OC41NjI1LDQwMi45Mzc1IEwyNjguNTYyNSw0MDAuNDM3NSBMMjczLjg3NSw0MDAuNDM3NSBMMjczLjg3NSwzOTguNjg3NSBMMjY2LjgxMjUsMzk4LjY4NzUgUTI2Ni44MTI1LDM5OC42ODc1IDI2Ni44MTI1LDQxMCBMMjczLjg3NSw0MTAgWiAiIGZpbGw9IiMwMDAwMDAiLz48dGV4dCBmaWxsPSIjMDAwMDAwIiBmb250LWZhbWlseT0ic2Fucy1zZXJpZiIgZm9udC1zaXplPSIxNCIgbGVuZ3RoQWRqdXN0PSJzcGFjaW5nIiB0ZXh0TGVuZ3RoPSI2NCIgeD0iMjkwLjc1IiB5PSI0MDkuNzQyMiI+Um9vbVN0YXRzPC90ZXh0PjxsaW5lIHN0eWxlPSJzdHJva2U6IzE4MTgxODtzdHJva2Utd2lkdGg6MC41OyIgeDE9IjIxNiIgeDI9IjM5NyIgeTE9IjQyMCIgeTI9IjQyMCIvPjxlbGxpcHNlIGN4PSIyMjYiIGN5PSI0MzIuOTkyMiIgZmlsbD0iIzAwMDAwMCIgcng9IjMiIHJ5PSIzIiBzdHlsZT0ic3Ryb2tlOiMwMDAwMDA7c3Ryb2tlLXdpZHRoOjEuMDsiLz48dGV4dCBmaWxsPSIjMDAwMDAwIiBmb250LWZhbWlseT0ic2Fucy1zZXJpZiIgZm9udC1zaXplPSIxNCIgbGVuZ3RoQWRqdXN0PSJzcGFjaW5nIiB0ZXh0TGVuZ3RoPSIxMzQiIHg9IjIzNSIgeT0iNDM3LjIzNDQiPnJvb21TdGF0c0lkOiBzdHJpbmc8L3RleHQ+PGxpbmUgc3R5bGU9InN0cm9rZTojMTgxODE4O3N0cm9rZS13aWR0aDoxLjA7IiB4MT0iMjE2IiB4Mj0iMzk3IiB5MT0iNDQyLjk4NDQiIHkyPSI0NDIuOTg0NCIvPjx0ZXh0IGZpbGw9IiMwMDAwMDAiIGZvbnQtZmFtaWx5PSJzYW5zLXNlcmlmIiBmb250LXNpemU9IjE0IiBsZW5ndGhBZGp1c3Q9InNwYWNpbmciIHRleHRMZW5ndGg9Ijk5IiB4PSIyMjEiIHk9IjQ2MC4yMTg4Ij5yb29tSWQ6IHN0cmluZzwvdGV4dD48dGV4dCBmaWxsPSIjMDAwMDAwIiBmb250LWZhbWlseT0ic2Fucy1zZXJpZiIgZm9udC1zaXplPSIxNCIgbGVuZ3RoQWRqdXN0PSJzcGFjaW5nIiB0ZXh0TGVuZ3RoPSIxNTQiIHg9IjIyMSIgeT0iNDc1LjIwMzEiPnRvdGFsUGFydGljaXBhbnRzOiBpbnQ8L3RleHQ+PHRleHQgZmlsbD0iIzAwMDAwMCIgZm9udC1mYW1pbHk9InNhbnMtc2VyaWYiIGZvbnQtc2l6ZT0iMTQiIGxlbmd0aEFkanVzdD0ic3BhY2luZyIgdGV4dExlbmd0aD0iMTI4IiB4PSIyMjEiIHk9IjQ5MC4xODc1Ij50b3RhbENvbW1lbnRzOiBpbnQ8L3RleHQ+PHRleHQgZmlsbD0iIzAwMDAwMCIgZm9udC1mYW1pbHk9InNhbnMtc2VyaWYiIGZvbnQtc2l6ZT0iMTQiIGxlbmd0aEFkanVzdD0ic3BhY2luZyIgdGV4dExlbmd0aD0iMTE5IiB4PSIyMjEiIHk9IjUwNS4xNzE5Ij50b3RhbFVwdm90ZXM6IGludDwvdGV4dD48dGV4dCBmaWxsPSIjMDAwMDAwIiBmb250LWZhbWlseT0ic2Fucy1zZXJpZiIgZm9udC1zaXplPSIxNCIgbGVuZ3RoQWRqdXN0PSJzcGFjaW5nIiB0ZXh0TGVuZ3RoPSIxNzEiIHg9IjIyMSIgeT0iNTIwLjE1NjMiPnRvdGFsTm9ybWFsQ29tbWVudHM6IGludDwvdGV4dD48L2c+PCEtLWNsYXNzIFJvb21BY2Nlc3NMb2ctLT48ZyBpZD0iZWxlbV9Sb29tQWNjZXNzTG9nIj48cmVjdCBjb2RlTGluZT0iNTMiIGZpbGw9IiNGMUYxRjEiIGhlaWdodD0iMTA3LjkzNzUiIGlkPSJSb29tQWNjZXNzTG9nIiByeD0iMi41IiByeT0iMi41IiBzdHlsZT0ic3Ryb2tlOiMxODE4MTg7c3Ryb2tlLXdpZHRoOjAuNTsiIHdpZHRoPSIxNTkiIHg9IjQzMyIgeT0iNDAzIi8+PGVsbGlwc2UgY3g9IjQ2My43NSIgY3k9IjQxOSIgZmlsbD0iI0FERDFCMiIgcng9IjExIiByeT0iMTEiIHN0eWxlPSJzdHJva2U6IzE4MTgxODtzdHJva2Utd2lkdGg6MS4wOyIvPjxwYXRoIGQ9Ik00NjcuMzc1LDQyNSBMNDY3LjM3NSw0MjMuMjUgTDQ2Mi4wNjI1LDQyMy4yNSBRNDYyLjA2MjUsNDIzLjI1IDQ2Mi4wNjI1LDQxOS42ODc1IEw0NjYuMzEyNSw0MTkuNjg3NSBMNDY2LjMxMjUsNDE3LjkzNzUgTDQ2Mi4wNjI1LDQxNy45Mzc1IEw0NjIuMDYyNSw0MTUuNDM3NSBMNDY3LjM3NSw0MTUuNDM3NSBMNDY3LjM3NSw0MTMuNjg3NSBMNDYwLjMxMjUsNDEzLjY4NzUgUTQ2MC4zMTI1LDQxMy42ODc1IDQ2MC4zMTI1LDQyNSBMNDY3LjM3NSw0MjUgWiAiIGZpbGw9IiMwMDAwMDAiLz48dGV4dCBmaWxsPSIjMDAwMDAwIiBmb250LWZhbWlseT0ic2Fucy1zZXJpZiIgZm9udC1zaXplPSIxNCIgbGVuZ3RoQWRqdXN0PSJzcGFjaW5nIiB0ZXh0TGVuZ3RoPSI5MiIgeD0iNDgxLjI1IiB5PSI0MjQuNzQyMiI+Um9vbUFjY2Vzc0xvZzwvdGV4dD48bGluZSBzdHlsZT0ic3Ryb2tlOiMxODE4MTg7c3Ryb2tlLXdpZHRoOjAuNTsiIHgxPSI0MzQiIHgyPSI1OTEiIHkxPSI0MzUiIHkyPSI0MzUiLz48ZWxsaXBzZSBjeD0iNDQ0IiBjeT0iNDQ3Ljk5MjIiIGZpbGw9IiMwMDAwMDAiIHJ4PSIzIiByeT0iMyIgc3R5bGU9InN0cm9rZTojMDAwMDAwO3N0cm9rZS13aWR0aDoxLjA7Ii8+PHRleHQgZmlsbD0iIzAwMDAwMCIgZm9udC1mYW1pbHk9InNhbnMtc2VyaWYiIGZvbnQtc2l6ZT0iMTQiIGxlbmd0aEFkanVzdD0ic3BhY2luZyIgdGV4dExlbmd0aD0iMTMzIiB4PSI0NTMiIHk9IjQ1Mi4yMzQ0Ij5hY2Nlc3NMb2dJZDogc3RyaW5nPC90ZXh0PjxsaW5lIHN0eWxlPSJzdHJva2U6IzE4MTgxODtzdHJva2Utd2lkdGg6MS4wOyIgeDE9IjQzNCIgeDI9IjU5MSIgeTE9IjQ1Ny45ODQ0IiB5Mj0iNDU3Ljk4NDQiLz48dGV4dCBmaWxsPSIjMDAwMDAwIiBmb250LWZhbWlseT0ic2Fucy1zZXJpZiIgZm9udC1zaXplPSIxNCIgbGVuZ3RoQWRqdXN0PSJzcGFjaW5nIiB0ZXh0TGVuZ3RoPSI5OSIgeD0iNDM5IiB5PSI0NzUuMjE4OCI+cm9vbUlkOiBzdHJpbmc8L3RleHQ+PHRleHQgZmlsbD0iIzAwMDAwMCIgZm9udC1mYW1pbHk9InNhbnMtc2VyaWYiIGZvbnQtc2l6ZT0iMTQiIGxlbmd0aEFkanVzdD0ic3BhY2luZyIgdGV4dExlbmd0aD0iOTgiIHg9IjQzOSIgeT0iNDkwLjIwMzEiPnVzZXJJZDogc3RyaW5nPC90ZXh0Pjx0ZXh0IGZpbGw9IiMwMDAwMDAiIGZvbnQtZmFtaWx5PSJzYW5zLXNlcmlmIiBmb250LXNpemU9IjE0IiBsZW5ndGhBZGp1c3Q9InNwYWNpbmciIHRleHRMZW5ndGg9IjExMyIgeD0iNDM5IiB5PSI1MDUuMTg3NSI+YWNjZXNzVGltZTogRGF0ZTwvdGV4dD48L2c+PCEtLWNsYXNzIFVzZXJBY3Rpdml0eUxvZy0tPjxnIGlkPSJlbGVtX1VzZXJBY3Rpdml0eUxvZyI+PHJlY3QgY29kZUxpbmU9IjYxIiBmaWxsPSIjRjFGMUYxIiBoZWlnaHQ9IjEwNy45Mzc1IiBpZD0iVXNlckFjdGl2aXR5TG9nIiByeD0iMi41IiByeT0iMi41IiBzdHlsZT0ic3Ryb2tlOiMxODE4MTg7c3Ryb2tlLXdpZHRoOjAuNTsiIHdpZHRoPSIxNzMiIHg9IjkxNyIgeT0iMjA1Ii8+PGVsbGlwc2UgY3g9Ijk0OC4yIiBjeT0iMjIxIiBmaWxsPSIjQUREMUIyIiByeD0iMTEiIHJ5PSIxMSIgc3R5bGU9InN0cm9rZTojMTgxODE4O3N0cm9rZS13aWR0aDoxLjA7Ii8+PHBhdGggZD0iTTk1MS44MjUsMjI3IEw5NTEuODI1LDIyNS4yNSBMOTQ2LjUxMjUsMjI1LjI1IFE5NDYuNTEyNSwyMjUuMjUgOTQ2LjUxMjUsMjIxLjY4NzUgTDk1MC43NjI1LDIyMS42ODc1IEw5NTAuNzYyNSwyMTkuOTM3NSBMOTQ2LjUxMjUsMjE5LjkzNzUgTDk0Ni41MTI1LDIxNy40Mzc1IEw5NTEuODI1LDIxNy40Mzc1IEw5NTEuODI1LDIxNS42ODc1IEw5NDQuNzYyNSwyMTUuNjg3NSBROTQ0Ljc2MjUsMjE1LjY4NzUgOTQ0Ljc2MjUsMjI3IEw5NTEuODI1LDIyNyBaICIgZmlsbD0iIzAwMDAwMCIvPjx0ZXh0IGZpbGw9IiMwMDAwMDAiIGZvbnQtZmFtaWx5PSJzYW5zLXNlcmlmIiBmb250LXNpemU9IjE0IiBsZW5ndGhBZGp1c3Q9InNwYWNpbmciIHRleHRMZW5ndGg9IjEwNSIgeD0iOTY1LjgiIHk9IjIyNi43NDIyIj5Vc2VyQWN0aXZpdHlMb2c8L3RleHQ+PGxpbmUgc3R5bGU9InN0cm9rZTojMTgxODE4O3N0cm9rZS13aWR0aDowLjU7IiB4MT0iOTE4IiB4Mj0iMTA4OSIgeTE9IjIzNyIgeTI9IjIzNyIvPjxlbGxpcHNlIGN4PSI5MjgiIGN5PSIyNDkuOTkyMiIgZmlsbD0iIzAwMDAwMCIgcng9IjMiIHJ5PSIzIiBzdHlsZT0ic3Ryb2tlOiMwMDAwMDA7c3Ryb2tlLXdpZHRoOjEuMDsiLz48dGV4dCBmaWxsPSIjMDAwMDAwIiBmb250LWZhbWlseT0ic2Fucy1zZXJpZiIgZm9udC1zaXplPSIxNCIgbGVuZ3RoQWRqdXN0PSJzcGFjaW5nIiB0ZXh0TGVuZ3RoPSIxNDciIHg9IjkzNyIgeT0iMjU0LjIzNDQiPmFjdGl2aXR5TG9nSWQ6IHN0cmluZzwvdGV4dD48bGluZSBzdHlsZT0ic3Ryb2tlOiMxODE4MTg7c3Ryb2tlLXdpZHRoOjEuMDsiIHgxPSI5MTgiIHgyPSIxMDg5IiB5MT0iMjU5Ljk4NDQiIHkyPSIyNTkuOTg0NCIvPjx0ZXh0IGZpbGw9IiMwMDAwMDAiIGZvbnQtZmFtaWx5PSJzYW5zLXNlcmlmIiBmb250LXNpemU9IjE0IiBsZW5ndGhBZGp1c3Q9InNwYWNpbmciIHRleHRMZW5ndGg9Ijk4IiB4PSI5MjMiIHk9IjI3Ny4yMTg4Ij51c2VySWQ6IHN0cmluZzwvdGV4dD48dGV4dCBmaWxsPSIjMDAwMDAwIiBmb250LWZhbWlseT0ic2Fucy1zZXJpZiIgZm9udC1zaXplPSIxNCIgbGVuZ3RoQWRqdXN0PSJzcGFjaW5nIiB0ZXh0TGVuZ3RoPSIxMTIiIHg9IjkyMyIgeT0iMjkyLjIwMzEiPmFjdGl2aXR5OiBzdHJpbmc8L3RleHQ+PHRleHQgZmlsbD0iIzAwMDAwMCIgZm9udC1mYW1pbHk9InNhbnMtc2VyaWYiIGZvbnQtc2l6ZT0iMTQiIGxlbmd0aEFkanVzdD0ic3BhY2luZyIgdGV4dExlbmd0aD0iMTI3IiB4PSI5MjMiIHk9IjMwNy4xODc1Ij5hY3Rpdml0eVRpbWU6IERhdGU8L3RleHQ+PC9nPjwhLS1jbGFzcyBSb29tUGVybWlzc2lvbi0tPjxnIGlkPSJlbGVtX1Jvb21QZXJtaXNzaW9uIj48cmVjdCBjb2RlTGluZT0iNjkiIGZpbGw9IiNGMUYxRjEiIGhlaWdodD0iMTA3LjkzNzUiIGlkPSJSb29tUGVybWlzc2lvbiIgcng9IjIuNSIgcnk9IjIuNSIgc3R5bGU9InN0cm9rZTojMTgxODE4O3N0cm9rZS13aWR0aDowLjU7IiB3aWR0aD0iMTY3IiB4PSI2MjciIHk9IjQwMyIvPjxlbGxpcHNlIGN4PSI2NTcuNzUiIGN5PSI0MTkiIGZpbGw9IiNBREQxQjIiIHJ4PSIxMSIgcnk9IjExIiBzdHlsZT0ic3Ryb2tlOiMxODE4MTg7c3Ryb2tlLXdpZHRoOjEuMDsiLz48cGF0aCBkPSJNNjYxLjM3NSw0MjUgTDY2MS4zNzUsNDIzLjI1IEw2NTYuMDYyNSw0MjMuMjUgUTY1Ni4wNjI1LDQyMy4yNSA2NTYuMDYyNSw0MTkuNjg3NSBMNjYwLjMxMjUsNDE5LjY4NzUgTDY2MC4zMTI1LDQxNy45Mzc1IEw2NTYuMDYyNSw0MTcuOTM3NSBMNjU2LjA2MjUsNDE1LjQzNzUgTDY2MS4zNzUsNDE1LjQzNzUgTDY2MS4zNzUsNDEzLjY4NzUgTDY1NC4zMTI1LDQxMy42ODc1IFE2NTQuMzEyNSw0MTMuNjg3NSA2NTQuMzEyNSw0MjUgTDY2MS4zNzUsNDI1IFogIiBmaWxsPSIjMDAwMDAwIi8+PHRleHQgZmlsbD0iIzAwMDAwMCIgZm9udC1mYW1pbHk9InNhbnMtc2VyaWYiIGZvbnQtc2l6ZT0iMTQiIGxlbmd0aEFkanVzdD0ic3BhY2luZyIgdGV4dExlbmd0aD0iMTAwIiB4PSI2NzUuMjUiIHk9IjQyNC43NDIyIj5Sb29tUGVybWlzc2lvbjwvdGV4dD48bGluZSBzdHlsZT0ic3Ryb2tlOiMxODE4MTg7c3Ryb2tlLXdpZHRoOjAuNTsiIHgxPSI2MjgiIHgyPSI3OTMiIHkxPSI0MzUiIHkyPSI0MzUiLz48ZWxsaXBzZSBjeD0iNjM4IiBjeT0iNDQ3Ljk5MjIiIGZpbGw9IiMwMDAwMDAiIHJ4PSIzIiByeT0iMyIgc3R5bGU9InN0cm9rZTojMDAwMDAwO3N0cm9rZS13aWR0aDoxLjA7Ii8+PHRleHQgZmlsbD0iIzAwMDAwMCIgZm9udC1mYW1pbHk9InNhbnMtc2VyaWYiIGZvbnQtc2l6ZT0iMTQiIGxlbmd0aEFkanVzdD0ic3BhY2luZyIgdGV4dExlbmd0aD0iMTQxIiB4PSI2NDciIHk9IjQ1Mi4yMzQ0Ij5wZXJtaXNzaW9uSWQ6IHN0cmluZzwvdGV4dD48bGluZSBzdHlsZT0ic3Ryb2tlOiMxODE4MTg7c3Ryb2tlLXdpZHRoOjEuMDsiIHgxPSI2MjgiIHgyPSI3OTMiIHkxPSI0NTcuOTg0NCIgeTI9IjQ1Ny45ODQ0Ii8+PHRleHQgZmlsbD0iIzAwMDAwMCIgZm9udC1mYW1pbHk9InNhbnMtc2VyaWYiIGZvbnQtc2l6ZT0iMTQiIGxlbmd0aEFkanVzdD0ic3BhY2luZyIgdGV4dExlbmd0aD0iOTgiIHg9IjYzMyIgeT0iNDc1LjIxODgiPnVzZXJJZDogc3RyaW5nPC90ZXh0Pjx0ZXh0IGZpbGw9IiMwMDAwMDAiIGZvbnQtZmFtaWx5PSJzYW5zLXNlcmlmIiBmb250LXNpemU9IjE0IiBsZW5ndGhBZGp1c3Q9InNwYWNpbmciIHRleHRMZW5ndGg9Ijk5IiB4PSI2MzMiIHk9IjQ5MC4yMDMxIj5yb29tSWQ6IHN0cmluZzwvdGV4dD48dGV4dCBmaWxsPSIjMDAwMDAwIiBmb250LWZhbWlseT0ic2Fucy1zZXJpZiIgZm9udC1zaXplPSIxNCIgbGVuZ3RoQWRqdXN0PSJzcGFjaW5nIiB0ZXh0TGVuZ3RoPSIxNTUiIHg9IjYzMyIgeT0iNTA1LjE4NzUiPnBlcm1pc3Npb25UeXBlOiBzdHJpbmc8L3RleHQ+PC9nPjwhLS1saW5rIFVzZXIgdG8gUm9vbS0tPjxnIGlkPSJsaW5rX1VzZXJfUm9vbSI+PHBhdGggY29kZUxpbmU9Ijc3IiBkPSJNNjIxLjc2MDEsMTM2LjEzNjkgQzYwMi40NjAxLDE1Ny42NjY5IDU5OC4xMDc2LDE2Mi41MTk0IDU3OC44MTc2LDE4NC4wMjk0ICIgZmlsbD0ibm9uZSIgaWQ9IlVzZXItUm9vbSIgc3R5bGU9InN0cm9rZTojMTgxODE4O3N0cm9rZS13aWR0aDoxLjA7Ii8+PGxpbmUgc3R5bGU9InN0cm9rZTojMTgxODE4O3N0cm9rZS13aWR0aDoxLjA7IiB4MT0iNjIxLjQ1MTYiIHgyPSI2MjcuNDA4NSIgeTE9IjEzMC40ODg1IiB5Mj0iMTM1LjgyODQiLz48bGluZSBzdHlsZT0ic3Ryb2tlOiMxODE4MTg7c3Ryb2tlLXdpZHRoOjEuMDsiIHgxPSI2MTkuNDQ5MSIgeDI9IjYyNS40MDYiIHkxPSIxMzIuNzIyMyIgeTI9IjEzOC4wNjIzIi8+PGxpbmUgc3R5bGU9InN0cm9rZTojMTgxODE4O3N0cm9rZS13aWR0aDoxLjA7IiB4MT0iNjIxLjc2MDEiIHgyPSI2MjcuMSIgeTE9IjEzNi4xMzY5IiB5Mj0iMTMwLjE4Ii8+PGxpbmUgc3R5bGU9InN0cm9rZTojMTgxODE4O3N0cm9rZS13aWR0aDoxLjA7IiB4MT0iNTcyLjE0MTIiIHgyPSI1NzEuMjY2OSIgeTE9IjE5MS40NzQyIiB5Mj0iMjAxLjQzNTkiLz48bGluZSBzdHlsZT0ic3Ryb2tlOiMxODE4MTg7c3Ryb2tlLXdpZHRoOjEuMDsiIHgxPSI1NzIuMTQxMiIgeDI9IjU2Mi4zMzMxIiB5MT0iMTkxLjQ3NDIiIHkyPSIxOTMuNDI0MSIvPjxsaW5lIHN0eWxlPSJzdHJva2U6IzE4MTgxODtzdHJva2Utd2lkdGg6MS4wOyIgeDE9IjU3Mi4xNDEyIiB4Mj0iNTY2LjgiIHkxPSIxOTEuNDc0MiIgeTI9IjE5Ny40MyIvPjxlbGxpcHNlIGN4PSI1NzYuMTQ3IiBjeT0iMTg3LjAwNzMiIGZpbGw9Im5vbmUiIHJ4PSI0IiByeT0iNCIgc3R5bGU9InN0cm9rZTojMTgxODE4O3N0cm9rZS13aWR0aDoxLjA7Ii8+PC9nPjwhLS1saW5rIFVzZXIgdG8gQ29tbWVudC0tPjxnIGlkPSJsaW5rX1VzZXJfQ29tbWVudCI+PHBhdGggY29kZUxpbmU9Ijc4IiBkPSJNNzI2Ljg1MTMsMTM2LjgxMzggQzczOS42OTEzLDE1NS44NjM4IDczOS40MTE0LDE1NS40NTI3IDc1Mi41NzE0LDE3NC45ODI3ICIgZmlsbD0ibm9uZSIgaWQ9IlVzZXItQ29tbWVudCIgc3R5bGU9InN0cm9rZTojMTgxODE4O3N0cm9rZS13aWR0aDoxLjA7Ii8+PGxpbmUgc3R5bGU9InN0cm9rZTojMTgxODE4O3N0cm9rZS13aWR0aDoxLjA7IiB4MT0iNzIxLjI5ODciIHgyPSI3MjcuOTMyNiIgeTE9IjEzNS43MzI2IiB5Mj0iMTMxLjI2MTMiLz48bGluZSBzdHlsZT0ic3Ryb2tlOiMxODE4MTg7c3Ryb2tlLXdpZHRoOjEuMDsiIHgxPSI3MjIuOTc1NSIgeDI9IjcyOS42MDkzIiB5MT0iMTM4LjIyMDIiIHkyPSIxMzMuNzQ4OSIvPjxsaW5lIHN0eWxlPSJzdHJva2U6IzE4MTgxODtzdHJva2Utd2lkdGg6MS4wOyIgeDE9IjcyNi44NTEzIiB4Mj0iNzIyLjM4IiB5MT0iMTM2LjgxMzgiIHkyPSIxMzAuMTgiLz48bGluZSBzdHlsZT0ic3Ryb2tlOiMxODE4MTg7c3Ryb2tlLXdpZHRoOjEuMDsiIHgxPSI3NTguMTU5NSIgeDI9Ijc2Ny42MDU4IiB5MT0iMTgzLjI3NTYiIHkyPSIxODYuNTU3MSIvPjxsaW5lIHN0eWxlPSJzdHJva2U6IzE4MTgxODtzdHJva2Utd2lkdGg6MS4wOyIgeDE9Ijc1OC4xNTk1IiB4Mj0iNzU3LjY1NDIiIHkxPSIxODMuMjc1NiIgeTI9IjE5My4yNjI5Ii8+PGxpbmUgc3R5bGU9InN0cm9rZTojMTgxODE4O3N0cm9rZS13aWR0aDoxLjA7IiB4MT0iNzU4LjE1OTUiIHgyPSI3NjIuNjMiIHkxPSIxODMuMjc1NiIgeTI9IjE4OS45MSIvPjxlbGxpcHNlIGN4PSI3NTQuODA2NyIgY3k9IjE3OC4yOTk5IiBmaWxsPSJub25lIiByeD0iNCIgcnk9IjQiIHN0eWxlPSJzdHJva2U6IzE4MTgxODtzdHJva2Utd2lkdGg6MS4wOyIvPjwvZz48IS0tbGluayBVc2VyIHRvIFBhcnRpY2lwYW50LS0+PGcgaWQ9ImxpbmtfVXNlcl9QYXJ0aWNpcGFudCI+PHBhdGggY29kZUxpbmU9Ijc5IiBkPSJNNjAxLjM1NzcsOTcuODYxMSBDNTQ0LjY2NzcsMTE5LjMxMTEgNDcyLjU0LDE0OS45OSA0MDguNSwxOTAgQzMwMy43OSwyNTUuNDMgMjEwLjA1NTcsMzQwLjg5MTkgMTUxLjYzNTcsMzk3Ljg3MTkgIiBmaWxsPSJub25lIiBpZD0iVXNlci1QYXJ0aWNpcGFudCIgc3R5bGU9InN0cm9rZTojMTgxODE4O3N0cm9rZS13aWR0aDoxLjA7Ii8+PGxpbmUgc3R5bGU9InN0cm9rZTojMTgxODE4O3N0cm9rZS13aWR0aDoxLjA7IiB4MT0iNjAzLjY4MzMiIHgyPSI2MDYuNTE0NCIgeTE9IjkyLjcwNDQiIHkyPSIxMDAuMTg2NyIvPjxsaW5lIHN0eWxlPSJzdHJva2U6IzE4MTgxODtzdHJva2Utd2lkdGg6MS4wOyIgeDE9IjYwMC44Nzc0IiB4Mj0iNjAzLjcwODUiIHkxPSI5My43NjYxIiB5Mj0iMTAxLjI0ODQiLz48bGluZSBzdHlsZT0ic3Ryb2tlOiMxODE4MTg7c3Ryb2tlLXdpZHRoOjEuMDsiIHgxPSI2MDEuMzU3NyIgeDI9IjYwOC44NCIgeTE9Ijk3Ljg2MTEiIHkyPSI5NS4wMyIvPjxsaW5lIHN0eWxlPSJzdHJva2U6IzE4MTgxODtzdHJva2Utd2lkdGg6MS4wOyIgeDE9IjE0NC40NzciIHgyPSIxNDIuOTM5NCIgeTE9IjQwNC44NTQyIiB5Mj0iNDE0LjczNTIiLz48bGluZSBzdHlsZT0ic3Ryb2tlOiMxODE4MTg7c3Ryb2tlLXdpZHRoOjEuMDsiIHgxPSIxNDQuNDc3IiB4Mj0iMTM0LjU2MDYiIHkxPSI0MDQuODU0MiIgeTI9IjQwNi4xNDQ4Ii8+PGxpbmUgc3R5bGU9InN0cm9rZTojMTgxODE4O3N0cm9rZS13aWR0aDoxLjA7IiB4MT0iMTQ0LjQ3NyIgeDI9IjEzOC43NSIgeTE9IjQwNC44NTQyIiB5Mj0iNDEwLjQ0Ii8+PGVsbGlwc2UgY3g9IjE0OC43NzIyIiBjeT0iNDAwLjY2NDgiIGZpbGw9Im5vbmUiIHJ4PSI0IiByeT0iNCIgc3R5bGU9InN0cm9rZTojMTgxODE4O3N0cm9rZS13aWR0aDoxLjA7Ii8+PC9nPjwhLS1saW5rIFVzZXIgdG8gVXNlckFjdGl2aXR5TG9nLS0+PGcgaWQ9ImxpbmtfVXNlcl9Vc2VyQWN0aXZpdHlMb2ciPjxwYXRoIGNvZGVMaW5lPSI4MCIgZD0iTTc2MS40ODI2LDExMS44NjUgQzgwNC4yMDI2LDEzNC44ODUgODUxLjksMTYxLjMzIDg5OS41LDE5MCBDOTA3LjM1LDE5NC43MyA5MDAuMjYyNCwxOTAuMTMwNCA5MDguMzMyNCwxOTUuMjQwNCAiIGZpbGw9Im5vbmUiIGlkPSJVc2VyLVVzZXJBY3Rpdml0eUxvZyIgc3R5bGU9InN0cm9rZTojMTgxODE4O3N0cm9rZS13aWR0aDoxLjA7Ii8+PGxpbmUgc3R5bGU9InN0cm9rZTojMTgxODE4O3N0cm9rZS13aWR0aDoxLjA7IiB4MT0iNzU2LjA2MzgiIHgyPSI3NTkuODU4OCIgeTE9IjExMy40ODg4IiB5Mj0iMTA2LjQ0NjIiLz48bGluZSBzdHlsZT0ic3Ryb2tlOiMxODE4MTg7c3Ryb2tlLXdpZHRoOjEuMDsiIHgxPSI3NTguNzA0OCIgeDI9Ijc2Mi40OTk4IiB5MT0iMTE0LjkxMTkiIHkyPSIxMDcuODY5MyIvPjxsaW5lIHN0eWxlPSJzdHJva2U6IzE4MTgxODtzdHJva2Utd2lkdGg6MS4wOyIgeDE9Ijc2MS40ODI2IiB4Mj0iNzU0LjQ0IiB5MT0iMTExLjg2NSIgeTI9IjEwOC4wNyIvPjxsaW5lIHN0eWxlPSJzdHJva2U6IzE4MTgxODtzdHJva2Utd2lkdGg6MS4wOyIgeDE9IjkxNi43ODExIiB4Mj0iOTI2Ljc0OTkiIHkxPSIyMDAuNTkwMiIgeTI9IjE5OS44MDA4Ii8+PGxpbmUgc3R5bGU9InN0cm9rZTojMTgxODE4O3N0cm9rZS13aWR0aDoxLjA7IiB4MT0iOTE2Ljc4MTEiIHgyPSI5MjAuMzMwMSIgeTE9IjIwMC41OTAyIiB5Mj0iMjA5LjkzOTIiLz48bGluZSBzdHlsZT0ic3Ryb2tlOiMxODE4MTg7c3Ryb2tlLXdpZHRoOjEuMDsiIHgxPSI5MTYuNzgxMSIgeDI9IjkyMy41NCIgeTE9IjIwMC41OTAyIiB5Mj0iMjA0Ljg3Ii8+PGVsbGlwc2UgY3g9IjkxMS43MTE5IiBjeT0iMTk3LjM4MDMiIGZpbGw9Im5vbmUiIHJ4PSI0IiByeT0iNCIgc3R5bGU9InN0cm9rZTojMTgxODE4O3N0cm9rZS13aWR0aDoxLjA7Ii8+PC9nPjwhLS1saW5rIFJvb20gdG8gUGFydGljaXBhbnQtLT48ZyBpZD0ibGlua19Sb29tX1BhcnRpY2lwYW50Ij48cGF0aCBjb2RlTGluZT0iODEiIGQ9Ik00MTguNDE3MiwyOTIuNzc5MSBDMzUzLjk3NzIsMzE2LjM1OTEgMjcyLjE0LDM0OC45IDE5Ny41LDM4OCBDMTg0Ljc5LDM5NC42NiAxODYuODg2NSwzOTIuODI0NSAxNzQuNDE2NSw0MDAuNzA0NSAiIGZpbGw9Im5vbmUiIGlkPSJSb29tLVBhcnRpY2lwYW50IiBzdHlsZT0ic3Ryb2tlOiMxODE4MTg7c3Ryb2tlLXdpZHRoOjEuMDsiLz48bGluZSBzdHlsZT0ic3Ryb2tlOiMxODE4MTg7c3Ryb2tlLXdpZHRoOjEuMDsiIHgxPSI0MjAuNzk5IiB4Mj0iNDIzLjU0ODEiIHkxPSIyODcuNjQ4MSIgeTI9IjI5NS4xNjEiLz48bGluZSBzdHlsZT0ic3Ryb2tlOiMxODE4MTg7c3Ryb2tlLXdpZHRoOjEuMDsiIHgxPSI0MTcuOTgxNyIgeDI9IjQyMC43MzA4IiB5MT0iMjg4LjY3OTEiIHkyPSIyOTYuMTkxOSIvPjxsaW5lIHN0eWxlPSJzdHJva2U6IzE4MTgxODtzdHJva2Utd2lkdGg6MS4wOyIgeDE9IjQxOC40MTcyIiB4Mj0iNDI1LjkzIiB5MT0iMjkyLjc3OTEiIHkyPSIyOTAuMDMiLz48bGluZSBzdHlsZT0ic3Ryb2tlOiMxODE4MTg7c3Ryb2tlLXdpZHRoOjEuMDsiIHgxPSIxNjUuOTYyOSIgeDI9IjE2Mi40MDUyIiB5MT0iNDA2LjA0NjQiIHkyPSI0MTUuMzkyMiIvPjxsaW5lIHN0eWxlPSJzdHJva2U6IzE4MTgxODtzdHJva2Utd2lkdGg6MS4wOyIgeDE9IjE2NS45NjI5IiB4Mj0iMTU1Ljk5NDgiIHkxPSI0MDYuMDQ2NCIgeTI9IjQwNS4yNDc4Ii8+PGxpbmUgc3R5bGU9InN0cm9rZTojMTgxODE4O3N0cm9rZS13aWR0aDoxLjA7IiB4MT0iMTY1Ljk2MjkiIHgyPSIxNTkuMiIgeTE9IjQwNi4wNDY0IiB5Mj0iNDEwLjMyIi8+PGVsbGlwc2UgY3g9IjE3MS4wMzUiIGN5PSI0MDIuODQxMiIgZmlsbD0ibm9uZSIgcng9IjQiIHJ5PSI0IiBzdHlsZT0ic3Ryb2tlOiMxODE4MTg7c3Ryb2tlLXdpZHRoOjEuMDsiLz48L2c+PCEtLWxpbmsgQ29tbWVudCB0byBVcHZvdGUtLT48ZyBpZD0ibGlua19Db21tZW50X1Vwdm90ZSI+PHBhdGggY29kZUxpbmU9IjgyIiBkPSJNODQzLjA2NjIsMzM1LjI3MTIgQzg1NS41NDYyLDM2Mi40NzEyIDg1OC43NjIyLDM2OS40NTA1IDg2OS45OTIyLDM5My45MjA1ICIgZmlsbD0ibm9uZSIgaWQ9IkNvbW1lbnQtVXB2b3RlIiBzdHlsZT0ic3Ryb2tlOiMxODE4MTg7c3Ryb2tlLXdpZHRoOjEuMDsiLz48bGluZSBzdHlsZT0ic3Ryb2tlOiMxODE4MTg7c3Ryb2tlLXdpZHRoOjEuMDsiIHgxPSI4MzcuNzYyNSIgeDI9Ijg0NS4wMzM3IiB5MT0iMzMzLjMwMzciIHkyPSIzMjkuOTY3NSIvPjxsaW5lIHN0eWxlPSJzdHJva2U6IzE4MTgxODtzdHJva2Utd2lkdGg6MS4wOyIgeDE9IjgzOS4wMTM2IiB4Mj0iODQ2LjI4NDciIHkxPSIzMzYuMDMwNCIgeTI9IjMzMi42OTQyIi8+PGxpbmUgc3R5bGU9InN0cm9rZTojMTgxODE4O3N0cm9rZS13aWR0aDoxLjA7IiB4MT0iODQzLjA2NjIiIHgyPSI4MzkuNzMiIHkxPSIzMzUuMjcxMiIgeTI9IjMyOCIvPjxsaW5lIHN0eWxlPSJzdHJva2U6IzE4MTgxODtzdHJva2Utd2lkdGg6MS4wOyIgeDE9Ijg3NC4xNjMyIiB4Mj0iODgyLjk1MzIiIHkxPSI0MDMuMDA5MSIgeTI9IjQwNy43Nzc0Ii8+PGxpbmUgc3R5bGU9InN0cm9rZTojMTgxODE4O3N0cm9rZS13aWR0aDoxLjA7IiB4MT0iODc0LjE2MzIiIHgyPSI4NzIuMDQ2OCIgeTE9IjQwMy4wMDkxIiB5Mj0iNDEyLjc4MjYiLz48bGluZSBzdHlsZT0ic3Ryb2tlOiMxODE4MTg7c3Ryb2tlLXdpZHRoOjEuMDsiIHgxPSI4NzQuMTYzMiIgeDI9Ijg3Ny41IiB5MT0iNDAzLjAwOTEiIHkyPSI0MTAuMjgiLz48ZWxsaXBzZSBjeD0iODcxLjY2MDYiIGN5PSIzOTcuNTU2IiBmaWxsPSJub25lIiByeD0iNCIgcnk9IjQiIHN0eWxlPSJzdHJva2U6IzE4MTgxODtzdHJva2Utd2lkdGg6MS4wOyIvPjwvZz48IS0tbGluayBSb29tIHRvIFJvb21TdGF0cy0tPjxnIGlkPSJsaW5rX1Jvb21fUm9vbVN0YXRzIj48cGF0aCBjb2RlTGluZT0iODMiIGQ9Ik00NDIuOTM0NywzMjYuMTg1IEM0MjAuNjA0NywzNDcuNDM1IDQxNC4yMDk1LDM1My41MTE1IDM5MS4yNjk1LDM3NS4zNDE1ICIgZmlsbD0ibm9uZSIgaWQ9IlJvb20tUm9vbVN0YXRzIiBzdHlsZT0ic3Ryb2tlOiMxODE4MTg7c3Ryb2tlLXdpZHRoOjEuMDsiLz48bGluZSBzdHlsZT0ic3Ryb2tlOiMxODE4MTg7c3Ryb2tlLXdpZHRoOjEuMDsiIHgxPSI0NDMuMDc0OSIgeDI9IjQ0OC41ODk5IiB5MT0iMzIwLjUyOTkiIHkyPSIzMjYuMzI1MSIvPjxsaW5lIHN0eWxlPSJzdHJva2U6IzE4MTgxODtzdHJva2Utd2lkdGg6MS4wOyIgeDE9IjQ0MC45MDE3IiB4Mj0iNDQ2LjQxNjYiIHkxPSIzMjIuNTk4IiB5Mj0iMzI4LjM5MzIiLz48bGluZSBzdHlsZT0ic3Ryb2tlOiMxODE4MTg7c3Ryb2tlLXdpZHRoOjEuMDsiIHgxPSI0NDIuOTM0NyIgeDI9IjQ0OC43MyIgeTE9IjMyNi4xODUiIHkyPSIzMjAuNjciLz48bGluZSBzdHlsZT0ic3Ryb2tlOiMxODE4MTg7c3Ryb2tlLXdpZHRoOjEuMDsiIHgxPSIzODQuMDI1MyIgeDI9IjM4Mi4zNjYyIiB5MT0iMzgyLjIzNTEiIHkyPSIzOTIuMDk2NSIvPjxsaW5lIHN0eWxlPSJzdHJva2U6IzE4MTgxODtzdHJva2Utd2lkdGg6MS4wOyIgeDE9IjM4NC4wMjUzIiB4Mj0iMzc0LjA5MzgiIHkxPSIzODIuMjM1MSIgeTI9IjM4My40MDM1Ii8+PGxpbmUgc3R5bGU9InN0cm9rZTojMTgxODE4O3N0cm9rZS13aWR0aDoxLjA7IiB4MT0iMzg0LjAyNTMiIHgyPSIzNzguMjMiIHkxPSIzODIuMjM1MSIgeTI9IjM4Ny43NSIvPjxlbGxpcHNlIGN4PSIzODguMzcxOCIgY3k9IjM3OC4wOTg5IiBmaWxsPSJub25lIiByeD0iNCIgcnk9IjQiIHN0eWxlPSJzdHJva2U6IzE4MTgxODtzdHJva2Utd2lkdGg6MS4wOyIvPjwvZz48IS0tbGluayBSb29tIHRvIFJvb21BY2Nlc3NMb2ctLT48ZyBpZD0ibGlua19Sb29tX1Jvb21BY2Nlc3NMb2ciPjxwYXRoIGNvZGVMaW5lPSI4NCIgZD0iTTUxMi41LDMyOC42NyBDNTEyLjUsMzU0Ljk4IDUxMi41LDM1OS41MSA1MTIuNSwzODQuOSAiIGZpbGw9Im5vbmUiIGlkPSJSb29tLVJvb21BY2Nlc3NMb2ciIHN0eWxlPSJzdHJva2U6IzE4MTgxODtzdHJva2Utd2lkdGg6MS4wOyIvPjxsaW5lIHN0eWxlPSJzdHJva2U6IzE4MTgxODtzdHJva2Utd2lkdGg6MS4wOyIgeDE9IjUwOC41IiB4Mj0iNTE2LjUiIHkxPSIzMjQuNjciIHkyPSIzMjQuNjciLz48bGluZSBzdHlsZT0ic3Ryb2tlOiMxODE4MTg7c3Ryb2tlLXdpZHRoOjEuMDsiIHgxPSI1MDguNSIgeDI9IjUxNi41IiB5MT0iMzI3LjY3IiB5Mj0iMzI3LjY3Ii8+PGxpbmUgc3R5bGU9InN0cm9rZTojMTgxODE4O3N0cm9rZS13aWR0aDoxLjA7IiB4MT0iNTEyLjUiIHgyPSI1MTIuNSIgeTE9IjMyOC42NyIgeTI9IjMyMC42NyIvPjxsaW5lIHN0eWxlPSJzdHJva2U6IzE4MTgxODtzdHJva2Utd2lkdGg6MS4wOyIgeDE9IjUxMi41IiB4Mj0iNTE4LjUiIHkxPSIzOTQuOSIgeTI9IjQwMi45Ii8+PGxpbmUgc3R5bGU9InN0cm9rZTojMTgxODE4O3N0cm9rZS13aWR0aDoxLjA7IiB4MT0iNTEyLjUiIHgyPSI1MDYuNSIgeTE9IjM5NC45IiB5Mj0iNDAyLjkiLz48bGluZSBzdHlsZT0ic3Ryb2tlOiMxODE4MTg7c3Ryb2tlLXdpZHRoOjEuMDsiIHgxPSI1MTIuNSIgeDI9IjUxMi41IiB5MT0iMzk0LjkiIHkyPSI0MDIuOSIvPjxlbGxpcHNlIGN4PSI1MTIuNSIgY3k9IjM4OC45IiBmaWxsPSJub25lIiByeD0iNCIgcnk9IjQiIHN0eWxlPSJzdHJva2U6IzE4MTgxODtzdHJva2Utd2lkdGg6MS4wOyIvPjwvZz48IS0tbGluayBVc2VyIHRvIFJvb21QZXJtaXNzaW9uLS0+PGcgaWQ9ImxpbmtfVXNlcl9Sb29tUGVybWlzc2lvbiI+PHBhdGggY29kZUxpbmU9Ijg1IiBkPSJNNjg2LjY1ODUsMTM4LjI5NzYgQzY5Mi4yODg1LDIxMy4zMzc2IDY5OS44MzQ3LDMxMy43OTAzIDcwNS4xNzQ3LDM4NS4wNDAzICIgZmlsbD0ibm9uZSIgaWQ9IlVzZXItUm9vbVBlcm1pc3Npb24iIHN0eWxlPSJzdHJva2U6IzE4MTgxODtzdHJva2Utd2lkdGg6MS4wOyIvPjxsaW5lIHN0eWxlPSJzdHJva2U6IzE4MTgxODtzdHJva2Utd2lkdGg6MS4wOyIgeDE9IjY4Mi4zNzA1IiB4Mj0iNjkwLjM0ODEiIHkxPSIxMzQuNjA4MSIgeTI9IjEzNC4wMDk1Ii8+PGxpbmUgc3R5bGU9InN0cm9rZTojMTgxODE4O3N0cm9rZS13aWR0aDoxLjA7IiB4MT0iNjgyLjU5NDkiIHgyPSI2OTAuNTcyNSIgeTE9IjEzNy41OTk2IiB5Mj0iMTM3LjAwMTEiLz48bGluZSBzdHlsZT0ic3Ryb2tlOiMxODE4MTg7c3Ryb2tlLXdpZHRoOjEuMDsiIHgxPSI2ODYuNjU4NSIgeDI9IjY4Ni4wNiIgeTE9IjEzOC4yOTc2IiB5Mj0iMTMwLjMyIi8+PGxpbmUgc3R5bGU9InN0cm9rZTojMTgxODE4O3N0cm9rZS13aWR0aDoxLjA7IiB4MT0iNzA1LjkyMjEiIHgyPSI3MTIuNTAzMiIgeTE9IjM5NS4wMTI0IiB5Mj0iNDAyLjU0MTYiLz48bGluZSBzdHlsZT0ic3Ryb2tlOiMxODE4MTg7c3Ryb2tlLXdpZHRoOjEuMDsiIHgxPSI3MDUuOTIyMSIgeDI9IjcwMC41MzY4IiB5MT0iMzk1LjAxMjQiIHkyPSI0MDMuNDM4NCIvPjxsaW5lIHN0eWxlPSJzdHJva2U6IzE4MTgxODtzdHJva2Utd2lkdGg6MS4wOyIgeDE9IjcwNS45MjIxIiB4Mj0iNzA2LjUyIiB5MT0iMzk1LjAxMjQiIHkyPSI0MDIuOTkiLz48ZWxsaXBzZSBjeD0iNzA1LjQ3MzciIGN5PSIzODkuMDI5MiIgZmlsbD0ibm9uZSIgcng9IjQiIHJ5PSI0IiBzdHlsZT0ic3Ryb2tlOiMxODE4MTg7c3Ryb2tlLXdpZHRoOjEuMDsiLz48L2c+PCEtLWxpbmsgUm9vbSB0byBSb29tUGVybWlzc2lvbi0tPjxnIGlkPSJsaW5rX1Jvb21fUm9vbVBlcm1pc3Npb24iPjxwYXRoIGNvZGVMaW5lPSI4NiIgZD0iTTU3OS40NzU3LDMyNi4yOTc5IEM2MDYuMDU1NywzNTIuNjA3OSA2MTguNDE3NCwzNjQuODQ3MSA2NDQuMDY3NCwzOTAuMjM3MSAiIGZpbGw9Im5vbmUiIGlkPSJSb29tLVJvb21QZXJtaXNzaW9uIiBzdHlsZT0ic3Ryb2tlOiMxODE4MTg7c3Ryb2tlLXdpZHRoOjEuMDsiLz48bGluZSBzdHlsZT0ic3Ryb2tlOiMxODE4MTg7c3Ryb2tlLXdpZHRoOjEuMDsiIHgxPSI1NzMuODE4OSIgeDI9IjU3OS40NDY4IiB5MT0iMzI2LjMyNjgiIHkyPSIzMjAuNjQxMSIvPjxsaW5lIHN0eWxlPSJzdHJva2U6IzE4MTgxODtzdHJva2Utd2lkdGg6MS4wOyIgeDE9IjU3NS45NTEiIHgyPSI1ODEuNTc4OSIgeTE9IjMyOC40MzcyIiB5Mj0iMzIyLjc1MTYiLz48bGluZSBzdHlsZT0ic3Ryb2tlOiMxODE4MTg7c3Ryb2tlLXdpZHRoOjEuMDsiIHgxPSI1NzkuNDc1NyIgeDI9IjU3My43OSIgeTE9IjMyNi4yOTc5IiB5Mj0iMzIwLjY3Ii8+PGxpbmUgc3R5bGU9InN0cm9rZTojMTgxODE4O3N0cm9rZS13aWR0aDoxLjA7IiB4MT0iNjUxLjE3NDQiIHgyPSI2NjEuMDgxIiB5MT0iMzk3LjI3MiIgeTI9IjM5OC42MzU4Ii8+PGxpbmUgc3R5bGU9InN0cm9rZTojMTgxODE4O3N0cm9rZS13aWR0aDoxLjA7IiB4MT0iNjUxLjE3NDQiIHgyPSI2NTIuNjM5IiB5MT0iMzk3LjI3MiIgeTI9IjQwNy4xNjQyIi8+PGxpbmUgc3R5bGU9InN0cm9rZTojMTgxODE4O3N0cm9rZS13aWR0aDoxLjA7IiB4MT0iNjUxLjE3NDQiIHgyPSI2NTYuODYiIHkxPSIzOTcuMjcyIiB5Mj0iNDAyLjkiLz48ZWxsaXBzZSBjeD0iNjQ2LjkxMDIiIGN5PSIzOTMuMDUxMSIgZmlsbD0ibm9uZSIgcng9IjQiIHJ5PSI0IiBzdHlsZT0ic3Ryb2tlOiMxODE4MTg7c3Ryb2tlLXdpZHRoOjEuMDsiLz48L2c+PCEtLVNSQz1bZlBKMVJlQ20zOFJsRjRORWF0WTF0aGhrQ2NjUWdXcVU4MGlNWWFQWWJBSlRLQmp0Tm1YaldZNkxnZXFCLTJWRV9zNlJXN1JJM1Fvc09EWWZPRnZ3TzBTVkYzU1JQZnNIa1dyWU1PUVJ2V2c4M2VoQlpZV3pqX09CM0tybDRUaUVBbG00N1ZNVmVlMzlfMHJISE5GWld4b3ZDQzBURDh6M2xVT0pzNTJtby05QVppMUZfZDcyX1V3YjhNZ1lzQTVJX1o2MlkyZEVpc0dlM3BhZ3hWbU1UNWJfSDAtc09ILTg3TjF6V3BQbnhSYm5LaVlVcHpad2ZGc0xCbmRLV0lYckZ1R3RNZjJqb1NzVG55US1FLXVpd012R3hpUHN3N1d0Z3U3VENBYlRVZExmc3JBVUZjZ2ZsZzlIb25JQWtuSzJoN3QxRFlCcGdfQVZJUFdzb1ZQdGRFUWpTRkJlMC1lUmpSbnByY1JBb09mUHpfNlJ6czJLajVRWUpXQ01mUmt6Q3VMOGtySDMzX0MxMlVWRC1Mb01VMGU4SEJacVhzWXAySTN3ZWRmNUU0aW9FVFVfLXZlTW5lRWlaaUV3S2tEQ2hCMUp2TFA5d1RLbF0tLT48L2c+PC9zdmc+;" vertex="1" parent="1">
            <mxGeometry x="-120" y="50" width="1097" height="532" as="geometry" />
          </mxCell>
        </UserObject>
      </root>
    </mxGraphModel>
  </diagram>
</mxfile>
